<svg id="svg" version="1.1" xmlns="http://www.w3.org/2000/svg" xmlns:xlink="http://www.w3.org/1999/xlink" width="400" height="422.3333333333333" viewBox="0, 0, 400,422.3333333333333"><g id="svgg"><path id="path0" d="M186.667 0.199 C 186.025 0.270,183.550 0.488,181.167 0.684 C 70.951 9.723,-10.786 110.726,2.199 221.833 C 9.287 282.473,47.220 340.650,98.265 369.167 C 100.788 370.576,101.020 370.822,100.083 371.088 C 99.763 371.179,97.700 371.805,95.500 372.480 C 85.526 375.537,67.667 378.928,67.667 377.765 C 67.667 377.254,70.304 364.317,70.460 364.065 C 70.538 363.938,65.930 363.818,60.218 363.799 C 32.420 363.709,14.818 359.318,3.076 349.545 C -0.502 346.567,-0.479 346.522,1.537 352.562 C 5.230 363.628,10.253 373.194,15.044 378.289 L 16.413 379.744 12.434 383.789 C 7.552 388.751,0.000 397.223,0.000 397.738 C -0.000 397.829,1.312 398.509,2.917 399.249 C 13.292 404.035,26.547 407.333,35.408 407.333 L 38.333 407.333 38.333 412.623 L 38.333 417.912 40.920 418.767 C 54.217 423.161,68.182 422.566,95.000 416.462 C 108.286 413.438,108.719 413.302,133.167 404.494 C 192.684 383.049,207.973 383.498,287.000 409.010 C 308.799 416.047,316.523 417.705,332.167 418.704 C 338.050 419.080,354.988 418.883,359.500 418.387 L 361.500 418.167 361.591 412.800 L 361.683 407.433 366.091 407.238 C 375.634 406.816,396.848 400.930,399.930 397.848 C 400.238 397.539,392.978 389.334,386.917 383.143 L 383.630 379.785 385.166 378.143 C 389.713 373.280,394.856 363.370,398.464 352.520 C 400.395 346.709,400.391 346.605,398.301 348.386 C 391.054 354.559,385.105 357.528,374.743 360.144 C 364.638 362.695,347.021 364.323,334.893 363.828 C 329.492 363.607,329.299 363.622,329.655 364.216 C 329.972 364.745,332.003 375.016,331.837 375.250 C 331.478 375.756,313.931 371.633,306.565 369.313 L 302.296 367.968 306.231 365.454 C 405.214 302.219,427.628 166.187,354.201 74.333 C 320.901 32.676,273.705 6.947,219.333 0.808 C 214.788 0.295,189.965 -0.168,186.667 0.199 M218.000 5.136 C 257.317 9.405,290.992 23.224,321.167 47.472 C 425.385 131.220,414.212 295.496,299.620 364.272 C 296.097 366.386,298.181 366.619,283.847 362.511 C 269.940 358.525,253.383 354.323,243.167 352.187 C 239.317 351.382,236.280 350.710,236.418 350.695 C 241.425 350.133,258.583 343.862,268.500 338.968 C 364.617 291.537,385.831 162.986,310.029 87.310 C 234.295 11.703,106.590 32.596,58.833 128.405 C 14.437 217.473,63.834 325.639,160.105 350.162 L 165.711 351.590 163.105 352.152 C 151.757 354.599,133.650 359.812,113.667 366.385 L 106.500 368.742 103.333 366.930 C -7.721 303.379,-28.281 152.076,61.826 61.466 C 95.149 27.957,137.592 8.543,186.000 4.668 C 191.546 4.224,212.413 4.529,218.000 5.136 M190.833 12.185 C 186.250 12.412,182.382 12.613,182.237 12.632 C 181.843 12.684,182.110 18.427,182.513 18.561 C 182.704 18.624,183.031 18.034,183.241 17.250 C 183.750 15.347,184.939 14.288,186.910 13.984 C 188.988 13.663,188.783 12.907,189.203 22.444 C 189.619 31.899,189.543 32.431,187.748 32.604 C 187.026 32.674,186.667 32.885,186.667 33.238 C 186.667 33.703,187.104 33.741,190.219 33.551 C 192.172 33.431,194.722 33.333,195.885 33.333 C 197.543 33.333,198.000 33.225,198.000 32.833 C 198.000 32.503,197.669 32.333,197.024 32.333 C 195.003 32.333,194.875 31.718,194.459 19.917 L 194.239 13.667 195.927 13.667 C 197.940 13.667,199.402 14.687,200.004 16.511 C 200.689 18.588,201.465 18.016,201.214 15.618 C 201.096 14.491,201.000 13.141,201.000 12.618 C 201.000 11.790,200.881 11.673,200.083 11.719 C 199.579 11.748,195.417 11.957,190.833 12.185 M206.000 12.307 C 206.000 12.476,206.440 12.710,206.977 12.828 C 208.826 13.234,208.828 13.254,208.003 22.591 C 207.186 31.838,207.048 32.333,205.282 32.333 C 204.760 32.333,204.333 32.477,204.333 32.652 C 204.333 33.075,205.371 33.219,212.833 33.826 C 216.317 34.109,219.936 34.429,220.876 34.537 L 222.585 34.733 223.124 32.283 C 224.104 27.826,224.121 27.665,223.625 27.682 C 223.373 27.691,222.857 28.328,222.478 29.099 C 221.302 31.490,219.474 32.491,216.281 32.491 C 212.469 32.491,212.283 32.032,213.298 25.121 L 213.500 23.742 214.632 24.121 C 215.949 24.562,217.000 26.245,217.000 27.911 C 217.000 28.617,217.163 29.000,217.462 29.000 C 217.981 29.000,218.198 27.785,218.501 23.167 C 218.610 21.517,218.779 19.604,218.879 18.917 C 219.121 17.230,218.172 17.144,217.857 18.824 C 217.564 20.384,215.700 22.333,214.501 22.333 L 213.581 22.333 213.814 18.917 C 214.168 13.740,213.950 14.075,216.753 14.409 C 220.242 14.826,222.333 16.598,222.333 19.138 C 222.333 20.752,223.265 19.743,223.455 17.924 C 223.825 14.389,223.739 13.334,223.083 13.331 C 222.762 13.329,219.350 13.030,215.500 12.667 C 207.651 11.925,206.000 11.863,206.000 12.307 M173.833 13.529 C 172.550 13.777,171.012 14.067,170.417 14.172 C 169.789 14.283,169.333 14.564,169.333 14.840 C 169.333 15.184,169.592 15.265,170.262 15.131 C 172.105 14.762,172.541 15.596,173.679 21.667 C 175.533 31.549,174.720 34.344,170.000 34.325 C 167.010 34.312,166.670 33.641,164.974 24.413 L 163.643 17.167 164.359 16.583 C 164.752 16.262,165.357 16.000,165.704 16.000 C 166.050 16.000,166.333 15.775,166.333 15.500 C 166.333 15.225,166.287 15.000,166.231 15.000 C 166.039 15.000,158.840 16.329,157.083 16.689 C 155.037 17.108,154.808 17.583,156.581 17.730 C 158.253 17.869,158.389 18.213,159.800 25.911 C 161.518 35.285,162.839 36.972,168.144 36.567 C 175.986 35.968,177.430 33.346,175.675 22.884 C 174.427 15.444,174.439 15.017,175.909 14.333 C 176.501 14.058,176.989 13.646,176.993 13.417 C 177.001 12.931,176.909 12.934,173.833 13.529 M141.039 21.348 C 130.626 24.856,131.833 23.976,132.913 27.269 C 133.925 30.357,134.667 30.870,134.667 28.483 C 134.667 26.529,135.359 25.221,136.735 24.574 C 139.117 23.456,138.851 23.068,141.713 31.833 C 144.688 40.944,144.762 41.408,143.333 42.000 C 142.341 42.411,141.850 43.590,142.827 43.215 C 143.099 43.111,145.499 42.327,148.161 41.474 C 152.771 39.995,154.816 38.747,151.836 39.231 C 151.146 39.343,150.476 39.256,150.189 39.019 C 149.480 38.430,144.187 22.347,144.575 21.959 C 145.810 20.724,148.736 21.294,150.378 23.090 C 151.072 23.849,151.734 24.377,151.849 24.262 C 152.080 24.031,150.305 18.318,150.015 18.359 C 149.915 18.374,145.876 19.718,141.039 21.348 M245.012 19.401 C 237.431 22.311,235.753 33.524,242.167 38.412 C 249.866 44.279,260.144 39.718,260.611 30.227 C 261.006 22.200,252.713 16.444,245.012 19.401 M253.006 21.003 C 256.194 22.630,256.308 28.060,253.289 34.542 C 249.503 42.673,241.890 39.582,243.744 30.667 C 245.406 22.676,248.979 18.949,253.006 21.003 M268.000 25.271 C 268.000 25.420,268.450 25.874,269.000 26.281 C 270.328 27.263,270.383 27.016,267.304 33.850 C 265.822 37.141,264.271 40.583,263.858 41.500 C 262.877 43.680,262.304 44.131,260.863 43.861 C 258.336 43.387,259.602 44.354,264.259 46.454 C 266.958 47.672,269.354 48.668,269.583 48.667 C 270.302 48.666,270.038 48.003,269.159 47.602 C 267.744 46.958,267.806 46.015,269.513 42.191 C 271.282 38.227,271.289 38.222,272.914 39.847 C 274.083 41.016,274.092 41.048,273.891 43.205 C 273.593 46.388,274.097 45.850,276.559 40.354 C 278.713 35.548,278.984 33.813,277.222 36.124 C 276.084 37.616,274.426 38.197,272.892 37.643 L 271.772 37.237 273.445 33.472 L 275.118 29.707 276.309 30.204 C 280.455 31.936,281.812 33.518,281.491 36.250 C 281.174 38.947,281.980 38.486,283.398 35.160 L 284.609 32.321 283.721 31.868 C 277.528 28.709,268.000 24.711,268.000 25.271 M122.393 28.648 C 117.529 30.940,116.779 31.581,119.181 31.396 C 120.759 31.274,120.262 30.467,124.994 40.827 C 128.212 47.870,128.366 48.627,126.687 49.160 C 126.081 49.353,125.676 50.333,126.203 50.333 C 126.919 50.333,136.333 45.775,136.333 45.428 C 136.333 44.908,135.845 44.881,134.965 45.352 C 134.051 45.841,133.179 45.484,132.668 44.410 C 125.824 30.023,125.313 28.451,127.196 27.593 C 127.982 27.234,128.137 26.620,127.479 26.470 C 127.307 26.431,125.018 27.411,122.393 28.648 M109.667 34.967 C 107.925 36.028,104.282 38.211,101.571 39.816 L 96.642 42.735 97.704 44.618 C 99.296 47.441,99.459 47.667,99.898 47.667 C 100.186 47.667,100.246 47.196,100.108 46.028 C 99.778 43.243,102.234 39.669,103.512 41.074 C 103.839 41.434,108.428 49.114,111.452 54.363 C 112.548 56.264,112.556 56.839,111.500 57.531 C 110.775 58.006,110.333 59.000,110.847 59.000 C 111.437 59.000,120.329 53.419,120.331 53.048 C 120.333 52.741,120.146 52.678,119.750 52.853 C 117.417 53.884,117.651 54.161,110.319 41.674 L 108.072 37.848 109.286 37.101 C 110.968 36.066,112.289 36.132,113.947 37.333 C 116.410 39.117,116.558 38.694,114.638 35.363 C 113.020 32.557,113.550 32.599,109.667 34.967 M294.928 41.417 C 293.197 44.064,293.260 44.931,295.083 43.541 C 296.845 42.197,298.038 42.097,299.821 43.142 C 300.653 43.629,301.333 44.092,301.333 44.170 C 301.333 44.299,295.320 53.200,292.607 57.086 C 291.471 58.714,290.240 59.373,289.576 58.709 C 289.142 58.276,288.000 58.201,288.000 58.606 C 288.000 59.081,296.996 65.042,297.367 64.813 C 297.586 64.677,297.377 64.234,296.817 63.649 C 296.229 63.036,295.973 62.474,296.085 62.046 C 296.294 61.246,305.735 47.333,306.069 47.333 C 308.013 47.333,309.376 50.883,308.614 53.958 C 308.551 54.210,308.663 54.477,308.862 54.551 C 309.200 54.677,312.349 50.309,312.320 49.754 C 312.307 49.508,297.453 39.311,296.816 39.111 C 296.642 39.057,295.792 40.094,294.928 41.417 M214.500 46.499 C 285.974 53.916,342.577 109.972,350.482 181.167 C 350.923 185.136,350.917 185.535,350.418 185.917 C 349.782 186.403,349.000 186.466,349.000 186.032 C 349.000 185.330,344.843 186.091,343.439 187.049 C 341.774 188.186,341.487 188.901,342.098 190.387 C 342.511 191.394,342.492 191.586,341.891 192.404 L 341.227 193.308 342.024 194.810 C 343.060 196.762,342.755 197.063,339.420 197.382 C 337.428 197.572,336.728 197.524,336.336 197.169 C 336.057 196.916,335.080 196.663,334.164 196.605 C 332.596 196.506,332.505 196.450,332.588 195.636 C 332.662 194.906,332.455 194.676,331.254 194.153 C 330.473 193.813,329.577 193.277,329.263 192.962 C 328.902 192.599,327.863 192.300,326.432 192.147 C 325.022 191.996,324.031 191.714,323.799 191.397 C 323.497 190.984,320.945 190.075,319.917 190.015 C 319.779 190.007,319.664 190.338,319.662 190.750 C 319.649 192.607,318.633 192.652,317.086 190.864 C 316.290 189.945,315.834 189.792,315.500 190.333 C 315.387 190.517,314.857 190.667,314.322 190.667 C 313.574 190.667,313.228 190.903,312.820 191.693 C 312.516 192.280,311.791 192.927,311.126 193.205 C 310.242 193.575,310.009 193.837,310.156 194.299 C 310.433 195.172,309.559 195.811,308.710 195.356 C 307.630 194.779,306.333 194.908,306.333 195.594 C 306.333 195.944,305.933 196.338,305.359 196.555 C 304.588 196.846,304.418 196.833,304.548 196.496 C 304.638 196.261,304.416 195.862,304.055 195.610 C 303.695 195.357,303.235 194.541,303.035 193.795 C 302.684 192.492,302.597 192.424,300.752 192.002 C 299.697 191.760,298.683 191.397,298.500 191.194 C 296.895 189.415,294.894 189.133,292.899 190.405 L 291.299 191.425 290.399 190.570 C 288.917 189.162,286.106 189.202,284.294 190.658 C 283.096 191.621,282.821 191.715,282.251 191.359 C 280.849 190.484,278.327 191.229,277.710 192.700 C 277.199 193.917,277.082 193.993,275.729 193.997 C 274.551 193.999,274.307 194.105,274.376 194.583 C 274.669 196.596,272.103 197.738,270.154 196.461 C 268.618 195.454,252.263 195.338,246.940 196.296 C 243.237 196.963,242.000 196.963,242.000 196.298 C 242.000 196.134,241.789 196.000,241.530 196.000 C 241.121 196.000,240.564 193.741,240.217 190.667 C 240.175 190.297,239.639 190.140,238.165 190.064 C 236.696 189.989,235.973 189.778,235.426 189.264 C 233.462 187.419,213.390 188.134,209.099 190.201 C 208.036 190.713,206.492 191.365,205.667 191.650 C 204.006 192.222,203.418 193.491,203.360 196.626 L 203.333 198.086 199.687 197.935 C 195.804 197.775,195.521 197.649,193.704 195.259 C 193.023 194.364,192.646 192.333,193.161 192.333 C 194.149 192.333,194.469 191.342,193.710 190.635 C 193.311 190.264,193.076 189.813,193.188 189.632 C 193.299 189.452,193.209 189.086,192.988 188.819 C 192.314 188.007,189.223 188.379,189.125 189.284 C 189.102 189.494,189.065 189.882,189.042 190.146 C 189.017 190.431,188.562 190.667,187.917 190.729 C 187.023 190.815,186.778 191.020,186.519 191.902 C 186.315 192.593,185.962 193.005,185.519 193.069 C 185.084 193.131,184.864 193.380,184.917 193.750 C 184.963 194.071,185.037 194.590,185.083 194.904 C 185.134 195.253,184.908 195.517,184.500 195.584 C 182.482 195.914,182.294 196.017,182.504 196.678 C 182.632 197.082,182.558 197.333,182.309 197.333 C 181.747 197.333,181.023 198.366,181.011 199.187 C 181.005 199.565,180.550 200.207,180.000 200.614 C 179.370 201.080,179.000 201.651,179.000 202.157 C 179.000 202.599,178.850 203.053,178.667 203.167 C 178.057 203.544,178.322 204.630,179.231 205.472 C 180.082 206.261,180.099 206.338,179.565 206.929 C 179.254 207.272,178.998 208.066,178.995 208.693 C 178.989 210.292,178.649 211.385,178.208 211.222 C 178.002 211.146,177.893 210.877,177.966 210.625 C 178.498 208.793,178.409 208.432,177.373 208.225 C 176.190 207.988,175.201 206.142,175.539 204.798 C 175.913 203.305,175.432 202.333,174.317 202.333 C 173.300 202.333,172.477 201.341,173.273 201.076 C 173.826 200.891,173.762 200.048,173.149 199.435 C 172.830 199.116,172.696 198.582,172.800 198.042 C 173.123 196.363,172.573 194.551,171.663 194.297 C 171.137 194.151,171.047 194.054,171.417 194.033 C 172.194 193.989,172.156 193.767,171.138 192.433 C 170.492 191.586,170.367 191.194,170.639 190.866 C 171.177 190.218,170.691 188.277,169.942 188.081 C 169.431 187.948,169.356 187.716,169.530 186.793 C 169.667 186.062,169.611 185.667,169.370 185.667 C 169.167 185.667,169.000 185.266,169.000 184.776 C 169.000 183.599,167.950 181.353,167.394 181.342 C 167.116 181.336,167.029 181.102,167.156 180.702 C 167.415 179.883,166.440 177.336,165.575 176.574 L 164.902 175.981 165.651 175.184 C 166.365 174.423,166.378 174.314,165.932 172.777 C 165.631 171.741,165.556 170.751,165.723 170.000 C 165.998 168.759,165.494 165.454,164.923 164.750 C 164.691 164.463,164.702 164.333,164.959 164.333 C 165.165 164.333,165.333 164.183,165.333 164.000 C 165.333 163.817,165.029 163.667,164.656 163.667 C 164.284 163.667,163.893 163.442,163.787 163.167 C 163.682 162.892,163.316 162.667,162.975 162.667 C 162.581 162.667,162.419 162.497,162.533 162.202 C 163.085 160.762,160.400 156.333,158.974 156.333 C 158.239 156.333,158.196 156.660,158.697 158.463 C 159.120 159.986,158.829 162.000,158.187 162.000 C 157.653 162.000,157.335 161.280,157.328 160.056 C 157.310 156.740,156.012 156.180,155.810 159.400 C 155.617 162.468,155.167 162.559,154.684 159.629 C 154.521 158.641,154.201 157.383,153.972 156.833 L 153.555 155.833 153.320 157.333 C 153.190 158.158,153.152 158.949,153.234 159.091 C 153.493 159.540,152.948 161.414,152.646 161.113 C 152.488 160.955,152.290 160.003,152.205 158.996 C 151.952 155.978,151.504 155.168,151.037 156.881 C 150.830 157.641,150.750 158.496,150.860 158.782 C 150.970 159.068,150.821 159.643,150.530 160.059 L 150.000 160.815 149.961 159.991 C 149.939 159.538,149.946 158.977,149.976 158.745 C 150.007 158.513,149.811 157.913,149.542 157.412 C 149.273 156.910,148.931 156.200,148.782 155.833 C 148.588 155.353,148.482 155.702,148.406 157.077 C 148.348 158.128,148.106 159.362,147.868 159.821 L 147.435 160.655 147.059 159.829 C 146.852 159.375,146.769 158.571,146.875 158.042 C 146.984 157.495,146.909 156.983,146.700 156.854 C 146.498 156.729,146.327 156.224,146.320 155.730 C 146.307 154.837,146.305 154.838,145.840 155.909 C 145.583 156.500,145.391 157.325,145.414 157.742 C 145.518 159.638,145.341 160.315,144.796 160.106 C 144.378 159.946,144.294 159.579,144.421 158.457 C 144.525 157.534,144.422 156.800,144.136 156.423 C 143.889 156.099,143.683 155.562,143.677 155.230 C 143.671 154.899,143.535 154.709,143.373 154.809 C 142.923 155.087,142.693 156.759,143.020 157.370 C 143.310 157.912,142.741 159.659,142.272 159.664 C 141.875 159.669,141.598 158.317,141.818 157.444 C 141.934 156.981,141.892 156.430,141.726 156.218 C 141.559 156.006,141.271 155.383,141.086 154.833 L 140.749 153.833 140.495 154.833 C 140.356 155.383,140.094 156.021,139.913 156.250 C 139.693 156.529,139.718 156.827,139.987 157.151 C 140.414 157.665,140.166 159.000,139.644 159.000 C 139.473 159.000,139.333 157.966,139.333 156.702 C 139.333 154.330,138.628 153.223,137.921 154.486 C 137.763 154.769,137.433 155.000,137.188 155.000 C 136.611 155.000,135.667 156.448,135.667 157.333 C 135.667 158.123,134.942 159.387,133.660 160.833 C 131.739 163.002,130.943 164.906,130.755 167.784 C 130.658 169.278,130.434 170.778,130.259 171.117 C 130.003 171.613,130.159 171.922,131.053 172.687 C 131.845 173.364,132.006 173.643,131.611 173.653 C 130.748 173.674,129.000 176.104,129.000 177.283 C 129.000 177.844,128.625 178.856,128.167 179.532 C 127.694 180.228,127.333 181.236,127.333 181.860 C 127.333 182.465,127.182 183.054,126.996 183.169 C 126.811 183.283,126.695 183.839,126.738 184.404 C 126.794 185.150,126.613 185.565,126.075 185.922 C 125.499 186.305,125.333 186.736,125.333 187.854 C 125.333 188.646,125.183 189.387,125.000 189.500 C 124.817 189.613,124.667 190.297,124.667 191.020 C 124.667 192.045,124.539 192.335,124.083 192.342 C 123.234 192.354,122.306 194.571,122.541 196.023 C 122.677 196.859,122.582 197.322,122.213 197.628 C 121.870 197.913,121.757 198.371,121.880 198.982 C 122.027 199.717,121.926 199.942,121.385 200.083 C 120.652 200.275,119.605 202.378,119.689 203.491 C 119.817 205.187,119.605 206.022,118.803 206.975 C 117.890 208.060,117.088 208.080,117.665 207.004 C 118.101 206.188,117.753 205.333,116.983 205.333 C 116.647 205.333,116.175 205.063,115.936 204.733 C 115.607 204.281,114.978 204.114,113.383 204.056 C 112.053 204.008,111.083 203.797,110.776 203.490 C 110.082 202.796,108.334 203.623,108.333 204.646 C 108.333 204.749,107.958 204.855,107.500 204.881 C 107.042 204.908,106.667 204.795,106.667 204.631 C 106.667 204.136,105.534 204.296,104.658 204.916 C 103.290 205.882,99.418 206.040,99.593 205.122 C 99.937 203.328,97.485 204.099,95.167 206.514 L 93.500 208.250 90.833 208.042 L 88.167 207.833 88.139 206.833 C 88.085 204.874,88.021 204.757,86.893 204.574 C 86.285 204.476,85.214 204.006,84.514 203.531 C 82.948 202.468,81.667 202.379,81.667 203.333 C 81.667 203.700,81.505 204.000,81.307 204.000 C 81.077 204.000,81.030 203.623,81.176 202.958 C 81.451 201.703,81.026 201.346,79.250 201.338 C 78.363 201.335,78.000 201.188,78.000 200.833 C 78.000 200.524,77.687 200.333,77.180 200.333 C 76.717 200.333,75.985 199.934,75.497 199.417 C 74.668 198.536,74.616 198.524,74.166 199.125 C 73.813 199.597,73.470 199.694,72.766 199.522 C 70.149 198.880,70.208 198.865,69.181 200.390 C 68.577 201.287,68.137 202.454,68.021 203.474 C 67.918 204.376,67.646 205.176,67.417 205.251 C 66.873 205.431,66.873 204.194,67.417 203.321 C 67.761 202.767,67.733 202.476,67.250 201.632 C 66.446 200.227,66.509 200.000,67.702 200.000 C 68.510 200.000,68.693 199.884,68.536 199.473 C 68.424 199.183,68.333 198.492,68.333 197.937 C 68.333 197.106,68.231 196.972,67.750 197.174 C 66.155 197.844,65.667 197.774,65.667 196.872 C 65.667 195.729,64.621 195.701,63.173 196.806 C 62.067 197.649,61.607 197.586,61.219 196.539 C 61.022 196.007,60.760 195.942,59.508 196.114 C 58.695 196.225,57.953 196.193,57.860 196.043 C 57.621 195.657,55.597 195.643,55.137 196.024 C 54.885 196.233,54.612 196.170,54.337 195.837 C 53.569 194.912,51.754 195.198,51.165 196.337 C 50.738 197.161,50.500 197.304,49.829 197.136 C 49.379 197.023,48.559 197.088,48.006 197.281 L 47.000 197.632 47.002 194.233 C 47.007 183.120,49.593 166.880,53.355 154.333 C 74.251 84.638,142.423 39.019,214.500 46.499 M90.333 47.633 C 90.333 48.517,90.191 48.634,88.678 48.997 C 83.485 50.243,80.864 55.409,83.444 59.309 C 85.197 61.957,87.290 62.410,93.347 61.450 C 98.216 60.678,100.000 61.306,100.000 63.788 C 100.000 67.817,94.336 69.047,89.779 66.007 C 87.494 64.484,88.366 66.183,92.593 71.493 C 93.414 72.524,93.871 72.371,94.055 71.004 C 94.146 70.326,94.579 70.010,96.444 69.261 C 101.199 67.352,103.497 63.752,102.367 59.982 C 101.205 56.102,98.052 54.966,91.779 56.167 C 86.735 57.132,85.000 56.636,85.000 54.229 C 85.000 51.122,89.203 49.757,92.855 51.678 C 95.635 53.140,95.713 52.525,93.147 49.383 C 90.726 46.420,90.333 46.176,90.333 47.633 M316.000 53.333 C 316.000 53.517,316.300 53.967,316.667 54.333 C 317.779 55.446,317.473 56.063,313.750 60.208 C 311.779 62.403,309.220 65.271,308.063 66.583 C 305.615 69.359,304.961 69.676,303.666 68.719 C 302.823 68.095,302.333 68.079,302.333 68.674 C 302.333 68.856,308.136 74.145,315.216 80.418 C 315.929 81.050,315.940 81.044,318.637 78.797 C 321.662 76.277,321.819 75.422,319.039 76.618 C 316.280 77.805,314.283 77.341,311.417 74.847 C 309.449 73.136,309.496 73.007,313.761 68.364 L 315.111 66.895 315.889 67.799 C 316.874 68.945,316.867 69.671,315.851 71.693 C 314.930 73.528,315.280 74.238,316.474 72.958 C 319.934 69.251,323.000 65.690,323.000 65.378 C 323.000 64.891,322.110 64.886,321.810 65.371 C 321.159 66.424,318.711 67.052,317.500 66.478 C 315.951 65.743,315.765 66.097,320.262 61.220 L 321.750 59.607 323.401 61.220 C 326.086 63.843,326.487 65.104,325.455 67.682 C 324.549 69.946,325.344 69.803,327.583 67.299 C 330.129 64.451,330.276 65.073,326.211 61.500 C 324.334 59.850,321.420 57.262,319.735 55.750 C 316.807 53.120,316.000 52.599,316.000 53.333 M73.041 61.459 C 70.772 63.743,70.196 65.168,72.074 63.853 C 73.549 62.819,74.214 63.161,78.072 66.938 C 81.614 70.407,81.711 70.538,80.627 70.422 C 80.007 70.355,76.425 69.958,72.667 69.538 L 65.833 68.775 63.086 71.304 C 61.575 72.695,60.337 74.021,60.336 74.250 C 60.333 74.746,61.206 74.809,61.500 74.333 C 61.613 74.150,62.344 74.000,63.123 74.000 C 64.515 74.000,64.641 74.102,70.058 79.583 C 76.111 85.708,76.449 86.230,75.334 87.737 C 73.696 89.953,75.308 89.206,77.994 86.506 C 79.537 84.955,80.700 83.589,80.580 83.469 C 80.359 83.248,80.134 83.329,78.690 84.157 C 78.004 84.550,77.748 84.552,77.023 84.167 C 75.794 83.515,66.744 74.332,67.338 74.339 C 67.610 74.343,72.558 74.853,78.333 75.473 C 84.108 76.094,88.957 76.525,89.108 76.432 C 89.259 76.339,86.319 73.166,82.573 69.382 C 75.460 62.194,74.945 61.500,75.812 60.263 C 77.389 58.011,75.773 58.709,73.041 61.459 M332.290 74.669 C 323.846 76.115,320.299 85.056,325.363 92.129 C 327.837 95.584,332.825 97.892,334.762 96.478 C 336.011 95.567,335.911 95.448,333.726 95.250 C 324.650 94.427,324.553 84.539,333.573 79.747 C 340.276 76.186,346.298 81.489,343.036 88.081 C 341.876 90.426,342.718 90.310,345.652 87.720 C 348.399 85.295,348.674 84.861,347.500 84.797 C 347.133 84.777,346.670 84.740,346.469 84.714 C 346.269 84.688,345.680 83.579,345.159 82.250 C 343.063 76.896,337.708 73.741,332.290 74.669 M54.083 81.978 C 52.204 84.337,50.667 86.357,50.667 86.467 C 50.667 86.915,51.603 86.623,52.167 86.000 C 53.200 84.858,53.799 85.188,60.673 90.680 C 67.919 96.470,68.059 96.628,67.209 98.108 C 65.603 100.907,67.531 99.405,70.806 95.306 C 73.139 92.385,74.231 90.765,74.014 90.547 C 73.796 90.330,73.403 90.521,72.858 91.109 C 71.599 92.467,71.898 92.633,63.750 86.082 C 57.071 80.713,56.742 80.310,57.844 78.853 C 58.443 78.061,58.468 77.663,57.917 77.678 C 57.688 77.684,55.962 79.620,54.083 81.978 M142.667 86.654 C 142.667 87.131,143.015 87.402,143.956 87.655 C 146.868 88.439,146.371 87.485,158.116 114.874 C 168.200 138.391,167.111 137.046,170.301 129.929 C 171.475 127.310,173.478 122.842,174.752 120.000 C 177.856 113.079,181.100 105.828,182.729 102.167 C 187.383 91.707,188.770 89.488,191.476 88.164 C 195.292 86.297,194.472 86.000,185.500 86.000 C 177.889 86.000,177.667 86.019,177.667 86.667 C 177.667 87.033,177.884 87.333,178.150 87.333 C 183.611 87.333,184.776 90.074,182.035 96.468 C 180.163 100.835,172.675 117.711,172.357 118.279 C 172.140 118.666,163.008 98.120,160.645 91.933 C 159.456 88.818,160.117 87.894,163.846 87.456 C 165.323 87.282,165.667 87.124,165.667 86.621 C 165.667 86.027,165.161 86.000,154.167 86.000 C 142.964 86.000,142.667 86.017,142.667 86.654 M195.333 86.620 C 195.333 87.127,195.670 87.275,197.180 87.431 C 199.679 87.689,201.059 88.543,201.596 90.166 C 202.211 92.026,202.036 129.145,201.407 130.247 C 200.765 131.369,199.246 132.000,197.183 132.000 C 195.432 132.000,195.333 132.045,195.333 132.833 L 195.333 133.667 207.833 133.667 L 220.333 133.667 220.333 132.917 C 220.332 132.238,220.163 132.163,218.564 132.126 C 213.542 132.009,213.663 132.558,213.685 109.927 C 213.708 87.209,213.552 87.940,218.486 87.431 C 219.996 87.275,220.333 87.127,220.333 86.620 C 220.333 86.027,219.798 86.000,207.833 86.000 C 195.869 86.000,195.333 86.027,195.333 86.620 M224.333 92.500 L 224.333 99.000 225.129 99.000 C 225.815 99.000,225.955 98.796,226.147 97.516 C 226.933 92.273,230.560 89.340,236.596 89.067 L 240.025 88.912 239.929 109.206 C 239.817 133.061,240.111 131.629,235.195 132.206 C 233.680 132.384,233.333 132.541,233.333 133.046 C 233.333 133.640,233.864 133.667,245.833 133.667 C 257.803 133.667,258.333 133.640,258.333 133.046 C 258.333 132.541,257.987 132.384,256.471 132.206 C 251.433 131.614,251.667 132.751,251.667 108.801 L 251.667 88.914 255.315 89.065 C 260.881 89.294,263.275 91.168,265.052 96.684 C 265.690 98.663,265.909 99.000,266.566 99.000 L 267.333 99.000 267.333 92.500 L 267.333 86.000 245.833 86.000 L 224.333 86.000 224.333 92.500 M351.481 91.039 C 352.132 93.121,352.071 93.476,350.934 94.224 C 348.351 95.924,337.447 102.557,336.885 102.770 C 336.445 102.937,336.004 102.718,335.335 102.002 C 333.013 99.516,333.608 101.332,336.762 106.357 C 339.270 110.354,340.361 111.583,340.052 110.064 C 339.582 107.760,339.651 107.658,343.167 105.449 C 347.141 102.952,346.651 103.028,347.664 104.753 C 348.120 105.530,348.900 106.860,349.396 107.707 L 350.298 109.248 347.016 111.291 C 343.340 113.578,342.686 113.720,341.681 112.443 C 338.976 109.003,343.220 117.693,346.137 121.565 C 346.600 122.180,346.911 120.924,346.500 120.100 C 345.728 118.553,345.833 118.458,353.535 113.684 C 361.564 108.706,361.934 108.553,362.917 109.804 C 363.545 110.602,364.333 110.960,364.333 110.447 C 364.333 109.836,358.535 101.000,358.134 101.000 C 357.547 101.000,357.550 101.141,358.164 102.329 C 358.869 103.692,358.682 103.939,355.323 106.083 C 351.642 108.433,352.087 108.479,350.238 105.560 C 348.031 102.078,347.969 102.393,351.258 100.435 C 355.235 98.066,355.165 98.082,356.308 99.306 C 358.269 101.406,357.667 99.567,354.929 95.098 C 352.295 90.798,350.888 89.142,351.481 91.039 M38.741 104.096 C 37.590 106.152,35.679 109.558,34.492 111.667 C 33.306 113.775,32.335 115.612,32.335 115.750 C 32.332 116.283,33.102 115.961,33.726 115.167 C 34.713 113.913,35.063 114.033,42.383 118.131 C 50.668 122.769,51.243 123.229,50.519 124.629 C 49.884 125.858,49.877 126.000,50.457 126.000 C 50.907 126.000,59.684 110.912,59.648 110.199 C 59.638 109.998,58.595 109.044,57.331 108.079 C 53.700 105.308,53.221 105.369,55.083 108.366 C 56.729 111.014,56.088 115.462,53.785 117.373 C 53.256 117.812,49.191 115.986,46.972 114.312 L 46.223 113.747 47.136 112.833 C 48.071 111.898,49.582 111.797,51.917 112.514 C 54.127 113.193,52.143 111.500,47.917 109.102 C 42.809 106.204,41.564 105.993,43.885 108.418 C 45.541 110.149,45.787 110.791,45.329 112.181 L 44.973 113.260 41.366 111.233 L 37.759 109.206 38.730 107.519 C 40.547 104.364,41.727 103.553,44.212 103.753 C 47.136 103.988,47.113 103.616,44.093 101.856 C 40.777 99.924,41.169 99.760,38.741 104.096 M365.894 114.550 C 365.769 114.675,365.667 115.336,365.667 116.019 C 365.667 117.957,364.978 118.425,357.382 121.647 C 349.334 125.061,349.354 125.057,348.208 123.593 C 347.297 122.428,346.686 122.543,347.188 123.785 C 348.888 127.991,349.859 129.989,350.151 129.880 C 350.343 129.809,350.452 129.548,350.392 129.302 C 350.125 128.190,350.272 126.919,350.719 126.471 C 351.216 125.975,363.337 120.559,363.527 120.749 C 363.584 120.806,361.392 125.123,358.657 130.343 C 353.934 139.355,353.332 140.667,353.917 140.667 C 354.055 140.667,357.692 139.150,362.000 137.297 C 373.029 132.552,372.180 132.795,373.409 134.025 C 375.068 135.683,375.163 134.743,373.683 131.331 C 372.173 127.848,372.175 127.852,371.702 128.145 C 371.471 128.287,371.467 128.641,371.688 129.223 C 371.939 129.883,371.889 130.286,371.481 130.909 C 370.963 131.700,370.130 132.137,364.581 134.529 L 361.995 135.644 364.680 130.572 C 366.157 127.782,367.835 124.573,368.409 123.441 L 369.453 121.382 367.999 118.108 C 366.403 114.509,366.229 114.216,365.894 114.550 M29.966 124.759 C 27.595 126.348,21.017 140.667,22.658 140.667 C 22.837 140.667,23.206 140.235,23.479 139.707 C 24.284 138.151,24.677 138.219,32.256 141.202 C 36.240 142.771,39.906 144.205,40.403 144.388 C 41.454 144.777,41.804 145.614,41.498 147.007 C 40.705 150.619,44.978 142.061,45.941 138.109 C 46.135 137.311,45.116 137.646,44.723 138.509 C 44.118 139.837,43.534 139.832,39.809 138.468 C 35.003 136.707,35.125 136.517,42.222 134.713 L 47.940 133.259 49.137 130.133 C 50.615 126.272,50.560 125.728,48.855 127.301 C 48.275 127.836,39.916 130.333,38.707 130.333 C 38.501 130.333,38.333 129.856,38.333 129.272 C 38.333 125.207,33.327 122.507,29.966 124.759 M33.387 129.533 C 35.417 130.570,36.023 132.203,35.319 134.738 C 34.827 136.510,34.739 136.512,30.645 134.868 C 26.131 133.056,26.448 133.410,27.495 131.343 C 28.800 128.768,30.729 128.176,33.387 129.533 M367.348 142.346 C 360.615 143.747,357.066 149.662,358.850 156.510 C 360.490 162.805,366.486 166.070,372.906 164.164 C 386.088 160.249,380.813 139.544,367.348 142.346 M375.906 148.046 C 380.430 149.446,379.631 155.102,374.594 157.327 C 367.400 160.505,361.178 159.753,360.153 155.583 C 359.007 150.920,369.290 146.000,375.906 148.046 M24.566 148.129 C 15.254 151.590,15.003 165.858,24.194 169.320 C 34.038 173.029,43.011 163.054,38.460 153.462 C 36.371 149.060,29.331 146.358,24.566 148.129 M29.710 153.651 C 36.444 155.349,39.150 158.241,37.390 161.862 C 34.685 167.430,19.000 163.765,19.000 157.566 C 19.000 153.670,23.401 152.061,29.710 153.651 M149.500 162.153 C 151.150 162.390,151.975 162.590,151.333 162.600 C 150.692 162.609,148.892 162.422,147.333 162.185 C 145.775 161.948,144.950 161.747,145.500 161.739 C 146.050 161.731,147.850 161.917,149.500 162.153 M159.583 163.563 C 159.262 163.647,158.737 163.647,158.417 163.563 C 158.096 163.479,158.358 163.411,159.000 163.411 C 159.642 163.411,159.904 163.479,159.583 163.563 M382.667 168.126 C 382.667 169.868,382.260 169.994,373.302 171.017 C 364.197 172.056,363.789 172.027,363.446 170.315 C 363.121 168.686,362.311 169.072,362.534 170.750 C 362.638 171.529,363.122 175.692,363.611 180.000 L 364.500 187.833 368.417 187.927 C 372.844 188.033,373.879 187.452,370.577 186.713 C 366.957 185.903,365.770 184.596,365.226 180.827 C 364.716 177.283,364.320 177.482,374.181 176.325 C 383.353 175.249,383.376 175.252,383.841 177.368 C 383.958 177.899,384.191 178.333,384.360 178.333 C 384.775 178.333,384.738 177.210,384.170 172.500 C 383.905 170.300,383.683 168.162,383.677 167.750 C 383.671 167.310,383.460 167.000,383.167 167.000 C 382.821 167.000,382.667 167.347,382.667 168.126 M28.333 174.766 C 28.333 175.045,29.270 175.787,30.415 176.416 C 33.221 177.955,33.831 179.030,33.735 182.262 C 33.607 186.533,34.303 186.329,23.225 185.350 C 15.285 184.648,15.000 184.553,15.000 182.626 C 15.000 181.699,14.858 181.333,14.500 181.333 C 14.225 181.333,13.999 181.596,13.997 181.917 C 13.996 182.237,13.854 184.150,13.683 186.167 C 13.173 192.160,13.161 192.776,13.552 192.906 C 13.755 192.974,14.020 192.499,14.141 191.852 C 14.484 190.026,14.776 189.988,23.013 190.684 C 27.131 191.032,30.912 191.320,31.417 191.325 C 32.626 191.336,33.667 192.419,33.667 193.667 C 33.667 195.332,34.243 194.787,34.459 192.917 C 34.570 191.954,34.884 188.392,35.158 185.000 C 35.431 181.608,35.734 178.143,35.832 177.299 L 36.010 175.765 33.422 175.226 C 28.674 174.238,28.333 174.207,28.333 174.766 M154.210 175.750 C 154.100 176.162,154.007 177.137,154.005 177.917 C 154.000 179.474,153.236 179.925,152.877 178.583 C 152.334 176.560,152.623 175.000,153.539 175.000 C 154.281 175.000,154.381 175.112,154.210 175.750 M155.333 183.500 C 155.333 184.878,155.265 185.000,154.500 185.000 C 153.735 185.000,153.667 184.878,153.667 183.500 C 153.667 182.122,153.735 182.000,154.500 182.000 C 155.265 182.000,155.333 182.122,155.333 183.500 M156.333 188.962 C 156.333 190.517,156.288 190.598,155.333 190.738 L 154.333 190.885 154.333 189.109 C 154.333 187.358,154.347 187.333,155.333 187.333 C 156.308 187.333,156.333 187.375,156.333 188.962 M372.245 192.341 C 363.059 194.661,361.032 207.803,369.076 212.882 C 374.960 216.596,383.432 213.894,385.509 207.641 C 388.513 198.594,381.144 190.095,372.245 192.341 M157.333 197.461 C 157.333 199.386,157.262 199.608,156.583 199.790 C 154.764 200.277,154.667 200.169,154.667 197.667 L 154.667 195.333 156.000 195.333 L 157.333 195.333 157.333 197.461 M294.000 198.167 C 294.929 198.992,295.816 199.667,295.972 199.667 C 296.128 199.667,296.855 200.267,297.588 201.000 C 298.799 202.211,299.079 202.333,300.641 202.333 C 301.913 202.333,302.875 202.601,304.337 203.362 C 306.667 204.575,307.373 204.515,310.697 202.822 C 311.905 202.207,313.683 201.599,314.648 201.471 C 316.082 201.281,316.634 201.004,317.675 199.953 C 320.056 197.547,324.086 198.134,327.509 201.385 L 329.909 203.665 333.538 204.211 C 335.624 204.525,337.616 205.026,338.224 205.389 C 338.911 205.801,339.356 205.899,339.497 205.672 C 339.615 205.480,339.852 205.409,340.023 205.514 C 341.641 206.514,337.949 211.296,335.923 210.824 C 335.324 210.684,333.834 210.578,332.613 210.589 C 330.459 210.608,330.340 210.564,328.669 209.138 C 327.546 208.179,326.629 207.667,326.036 207.667 C 325.351 207.667,324.746 207.226,323.579 205.873 C 322.505 204.629,321.694 204.011,320.932 203.855 C 316.954 203.038,316.245 203.267,315.592 205.585 C 315.093 207.358,314.080 207.945,311.462 207.981 C 310.435 207.995,309.605 208.329,308.160 209.310 C 305.103 211.385,300.675 211.710,298.196 210.040 C 297.447 209.536,296.122 208.858,295.254 208.535 C 294.259 208.165,293.233 207.432,292.485 206.557 C 289.453 203.009,283.878 202.479,282.409 205.601 C 281.904 206.673,281.643 206.858,280.409 207.023 C 279.465 207.149,278.628 207.551,277.911 208.223 C 275.264 210.703,273.357 211.018,271.143 209.343 C 270.423 208.798,269.501 208.348,269.095 208.343 C 268.689 208.338,267.817 207.859,267.157 207.280 C 266.320 206.545,265.439 206.145,264.239 205.955 C 263.294 205.806,262.109 205.380,261.607 205.009 C 261.105 204.637,260.474 204.333,260.206 204.333 C 259.790 204.333,256.895 201.327,257.107 201.115 C 257.340 200.882,268.062 202.419,269.228 202.852 C 270.308 203.255,270.669 203.587,270.832 204.329 C 271.134 205.704,271.770 206.144,272.729 205.643 C 273.987 204.985,277.667 201.914,277.667 201.521 C 277.667 200.666,284.757 197.222,287.000 196.988 C 291.894 196.476,292.144 196.518,294.000 198.167 M26.667 197.804 C 26.667 198.095,26.929 198.335,27.250 198.337 C 29.375 198.348,32.390 200.720,32.966 202.833 C 34.158 207.207,33.473 208.164,28.944 208.446 C 15.010 209.313,14.333 209.235,14.333 206.759 C 14.333 206.321,14.131 206.000,13.854 206.000 C 13.508 206.000,13.413 206.300,13.513 207.083 C 13.589 207.679,13.745 210.229,13.860 212.750 C 14.024 216.353,14.168 217.333,14.534 217.333 C 14.829 217.333,15.000 216.969,15.000 216.341 C 15.000 214.734,15.888 214.433,21.333 214.196 C 23.992 214.080,27.749 213.894,29.683 213.783 C 33.554 213.560,34.333 213.851,34.333 215.524 C 34.333 216.021,34.526 216.333,34.833 216.333 C 35.108 216.333,35.326 216.071,35.316 215.750 C 35.172 210.754,34.367 197.922,34.187 197.741 C 33.633 197.186,26.667 197.244,26.667 197.804 M379.067 198.366 C 383.756 199.339,385.974 202.685,384.037 205.862 C 381.654 209.769,368.814 209.514,366.340 205.510 C 363.217 200.457,370.213 196.530,379.067 198.366 M345.667 201.134 C 345.667 201.950,343.653 202.441,343.144 201.749 C 342.785 201.261,342.806 201.130,343.275 200.940 C 344.289 200.529,345.667 200.640,345.667 201.134 M158.333 204.833 L 158.333 206.667 156.833 206.667 L 155.333 206.667 155.333 204.833 L 155.333 203.000 156.833 203.000 L 158.333 203.000 158.333 204.833 M352.328 210.989 C 353.297 212.909,353.309 212.989,352.688 213.322 C 350.602 214.438,349.942 213.068,350.887 209.583 C 351.123 208.714,351.234 208.823,352.328 210.989 M193.000 211.500 L 193.000 213.000 188.333 213.000 L 183.667 213.000 183.667 211.500 L 183.667 210.000 188.333 210.000 L 193.000 210.000 193.000 211.500 M207.000 211.500 L 207.000 213.000 202.167 213.000 L 197.333 213.000 197.333 211.500 L 197.333 210.000 202.167 210.000 L 207.000 210.000 207.000 211.500 M220.667 211.500 L 220.667 213.000 216.000 213.000 L 211.333 213.000 211.333 211.500 L 211.333 210.000 216.000 210.000 L 220.667 210.000 220.667 211.500 M234.667 211.500 L 234.667 213.000 229.833 213.000 L 225.000 213.000 225.000 211.500 L 225.000 210.000 229.833 210.000 L 234.667 210.000 234.667 211.500 M248.333 211.500 L 248.333 213.000 243.667 213.000 L 239.000 213.000 239.000 211.500 L 239.000 210.000 243.667 210.000 L 248.333 210.000 248.333 211.500 M90.333 213.292 C 90.333 214.805,89.846 215.666,88.794 216.013 C 88.015 216.270,87.667 216.590,87.667 217.049 C 87.667 217.547,87.479 217.686,86.917 217.607 C 84.777 217.303,86.764 213.000,89.044 213.000 C 89.753 213.000,90.333 213.131,90.333 213.292 M340.667 218.667 L 340.667 220.667 292.500 220.667 L 244.333 220.667 244.333 218.667 L 244.333 216.667 292.500 216.667 L 340.667 216.667 340.667 218.667 M184.333 219.833 L 184.333 221.333 179.500 221.333 L 174.667 221.333 174.667 219.833 L 174.667 218.333 179.500 218.333 L 184.333 218.333 184.333 219.833 M198.000 219.833 L 198.000 221.333 193.333 221.333 L 188.667 221.333 188.667 219.833 L 188.667 218.333 193.333 218.333 L 198.000 218.333 198.000 219.833 M212.000 219.833 L 212.000 221.333 207.167 221.333 L 202.333 221.333 202.333 219.833 L 202.333 218.333 207.167 218.333 L 212.000 218.333 212.000 219.833 M225.667 219.833 L 225.667 221.333 221.000 221.333 L 216.333 221.333 216.333 219.833 L 216.333 218.333 221.000 218.333 L 225.667 218.333 225.667 219.833 M239.667 219.833 L 239.667 221.333 234.833 221.333 L 230.000 221.333 230.000 219.833 L 230.000 218.333 234.833 218.333 L 239.667 218.333 239.667 219.833 M369.775 218.998 C 364.294 220.148,360.943 225.449,361.039 232.820 C 361.105 237.825,361.040 237.713,364.240 238.353 C 367.393 238.983,368.000 239.368,368.000 240.735 C 368.000 243.705,370.341 235.505,370.660 231.417 C 370.702 230.880,369.685 231.548,369.532 232.157 C 369.197 233.491,368.445 233.661,365.374 233.095 L 362.594 232.583 362.727 230.498 C 363.115 224.413,370.237 222.566,378.048 226.525 C 383.654 229.365,382.367 237.042,375.969 238.922 C 374.369 239.392,373.227 240.330,374.250 240.334 C 374.683 240.336,380.473 241.356,381.083 241.538 C 381.825 241.759,381.904 240.496,381.167 240.213 C 380.448 239.937,380.550 238.843,381.428 237.410 C 383.427 234.149,383.959 229.309,382.690 225.951 C 380.805 220.967,375.081 217.885,369.775 218.998 M30.593 220.306 C 28.477 220.521,28.349 221.086,30.333 221.453 C 32.794 221.908,34.615 223.690,35.319 226.333 C 35.991 228.857,36.018 229.182,35.598 229.741 C 35.249 230.206,29.448 231.659,27.917 231.666 C 26.246 231.672,28.851 227.634,30.839 227.135 C 31.778 226.900,31.974 225.994,31.083 226.012 C 29.472 226.046,20.858 227.927,20.743 228.271 C 20.657 228.528,21.034 228.667,21.816 228.667 C 23.986 228.667,27.160 230.951,26.252 231.859 C 25.836 232.275,18.580 233.380,18.274 233.074 C 16.530 231.330,17.912 225.670,20.327 224.669 C 21.923 224.008,21.654 223.198,19.917 223.439 C 16.060 223.972,14.936 224.364,15.110 225.117 C 15.201 225.511,15.926 229.471,16.721 233.917 C 18.031 241.241,18.812 243.745,18.845 240.723 C 18.864 238.959,19.329 238.783,28.276 237.151 C 37.374 235.491,38.000 235.505,38.000 237.365 C 38.000 238.001,38.579 238.532,38.911 238.201 C 39.020 238.091,38.380 233.951,37.488 229.001 L 35.866 220.000 34.183 220.056 C 33.257 220.087,31.642 220.199,30.593 220.306 M311.246 224.272 C 311.659 224.535,311.531 225.199,310.591 227.663 C 310.131 228.869,309.333 227.703,309.333 225.825 C 309.333 224.035,310.009 223.486,311.246 224.272 M267.818 224.661 C 268.518 224.927,268.617 225.099,268.347 225.578 C 268.165 225.902,267.856 226.804,267.661 227.583 C 267.241 229.266,267.169 229.294,266.509 228.017 C 265.915 226.869,265.862 225.881,266.345 224.978 C 266.747 224.227,266.703 224.237,267.818 224.661 M297.000 226.167 C 297.000 226.442,296.775 226.667,296.500 226.667 C 296.225 226.667,296.000 226.442,296.000 226.167 C 296.000 225.892,296.225 225.667,296.500 225.667 C 296.775 225.667,297.000 225.892,297.000 226.167 M303.667 226.333 C 303.667 226.704,303.444 227.000,303.167 227.000 C 302.889 227.000,302.667 226.704,302.667 226.333 C 302.667 225.963,302.889 225.667,303.167 225.667 C 303.444 225.667,303.667 225.963,303.667 226.333 M259.000 227.451 L 259.000 228.902 255.788 229.127 C 254.021 229.252,252.542 229.311,252.501 229.260 C 252.461 229.209,252.334 228.454,252.220 227.583 L 252.013 226.000 255.506 226.000 L 259.000 226.000 259.000 227.451 M248.333 228.000 L 248.333 229.667 245.202 229.667 C 241.755 229.667,241.667 229.612,241.667 227.473 L 241.667 226.333 245.000 226.333 L 248.333 226.333 248.333 228.000 M225.333 228.500 L 225.333 230.000 220.667 230.000 L 216.000 230.000 216.000 229.027 C 216.000 228.492,215.909 227.817,215.798 227.527 C 215.619 227.061,216.161 227.000,220.464 227.000 L 225.333 227.000 225.333 228.500 M236.333 228.167 L 236.333 229.333 232.833 229.333 C 230.258 229.333,229.332 229.223,229.329 228.917 C 229.326 228.688,229.234 228.162,229.123 227.750 C 228.924 227.005,228.948 227.000,232.628 227.000 L 236.333 227.000 236.333 228.167 M150.333 229.833 L 150.333 232.333 145.333 232.333 L 140.333 232.333 140.333 229.833 L 140.333 227.333 145.333 227.333 L 150.333 227.333 150.333 229.833 M196.333 229.667 L 196.333 231.667 191.000 231.667 L 185.667 231.667 185.667 229.667 L 185.667 227.667 191.000 227.667 L 196.333 227.667 196.333 229.667 M211.667 229.000 L 211.667 230.333 207.000 230.333 L 202.333 230.333 202.333 229.000 L 202.333 227.667 207.000 227.667 L 211.667 227.667 211.667 229.000 M135.000 230.167 L 135.000 232.000 128.853 232.000 C 125.472 232.000,122.637 231.887,122.552 231.750 C 122.467 231.612,122.292 230.787,122.161 229.917 L 121.924 228.333 128.462 228.333 L 135.000 228.333 135.000 230.167 M165.667 230.167 L 165.667 232.000 160.833 232.000 L 156.000 232.000 156.000 230.167 L 156.000 228.333 160.833 228.333 L 165.667 228.333 165.667 230.167 M182.000 229.667 L 182.000 231.000 176.333 231.000 L 170.667 231.000 170.667 229.889 C 170.667 228.307,170.568 228.333,176.556 228.333 L 182.000 228.333 182.000 229.667 M283.892 229.200 C 284.095 229.730,283.518 230.318,282.786 230.328 C 282.332 230.334,281.919 229.400,282.185 228.970 C 282.495 228.469,283.673 228.628,283.892 229.200 M118.333 231.500 L 118.333 234.000 112.457 234.000 L 106.581 234.000 106.809 232.250 C 107.276 228.668,106.658 229.000,112.869 229.000 L 118.333 229.000 118.333 231.500 M103.000 231.833 L 103.000 234.333 98.500 234.333 L 94.000 234.333 94.000 231.833 L 94.000 229.333 98.500 229.333 L 103.000 229.333 103.000 231.833 M68.216 230.333 L 71.000 230.333 71.000 232.167 L 71.000 234.000 66.167 234.000 L 61.333 234.000 61.333 231.953 L 61.333 229.905 63.382 230.119 C 64.509 230.237,66.684 230.333,68.216 230.333 M89.000 232.333 L 89.000 234.667 82.538 234.667 L 76.076 234.667 75.847 233.083 C 75.722 232.213,75.538 231.162,75.440 230.750 L 75.261 230.000 82.131 230.000 L 89.000 230.000 89.000 232.333 M58.667 233.213 L 58.667 234.758 55.750 234.538 C 50.091 234.109,50.000 234.082,50.000 232.795 L 50.000 231.667 54.333 231.667 L 58.667 231.667 58.667 233.213 M182.667 234.167 C 183.018 234.590,184.576 234.668,192.791 234.678 C 201.520 234.687,202.685 234.754,204.333 235.333 C 207.127 236.316,212.515 236.296,211.985 235.305 C 211.780 234.922,211.663 234.559,211.726 234.497 C 211.900 234.322,235.939 233.667,242.168 233.667 L 247.713 233.667 247.607 234.417 C 247.502 235.153,247.392 235.170,241.667 235.371 C 222.308 236.049,216.667 236.491,216.667 237.330 C 216.667 238.209,217.414 238.179,195.833 238.173 L 175.833 238.167 174.583 237.210 C 172.940 235.953,173.006 235.667,174.938 235.667 C 176.285 235.667,176.695 235.507,177.500 234.667 C 178.616 233.502,181.855 233.188,182.667 234.167 M305.201 234.388 C 305.305 234.557,305.247 234.877,305.072 235.098 C 304.897 235.319,304.653 236.057,304.531 236.738 C 304.247 238.312,303.760 238.621,303.333 237.498 C 302.864 236.266,302.915 234.084,303.417 233.915 C 303.960 233.733,304.959 233.997,305.201 234.388 M326.377 234.377 C 327.624 235.624,326.811 240.667,325.362 240.667 C 324.019 240.667,322.761 236.212,323.536 234.194 C 323.831 233.426,325.536 233.536,326.377 234.377 M275.705 235.658 C 276.931 236.790,277.315 237.318,276.917 237.324 C 276.580 237.330,276.333 237.588,276.333 237.933 C 276.333 239.404,274.475 239.691,270.246 238.873 C 267.509 238.343,267.623 238.451,268.048 236.778 C 268.379 235.473,268.464 235.401,269.947 235.193 C 270.801 235.074,271.875 234.761,272.333 234.500 C 273.572 233.792,273.754 233.855,275.705 235.658 M316.464 235.083 C 317.434 236.599,317.306 239.817,316.272 239.937 C 313.482 240.259,312.492 237.490,314.597 235.250 C 315.641 234.139,315.848 234.120,316.464 235.083 M156.000 237.667 L 156.000 239.000 152.333 239.000 C 150.317 239.000,148.667 238.869,148.667 238.708 C 148.667 238.548,148.573 237.948,148.458 237.375 L 148.250 236.333 152.125 236.333 L 156.000 236.333 156.000 237.667 M128.333 238.000 L 128.333 239.333 122.372 239.333 C 116.472 239.333,116.409 239.326,116.210 238.583 C 115.676 236.591,115.439 236.667,122.167 236.667 L 128.333 236.667 128.333 238.000 M143.000 237.833 L 143.000 239.000 138.667 239.000 L 134.333 239.000 134.333 237.833 L 134.333 236.667 138.667 236.667 L 143.000 236.667 143.000 237.833 M97.667 239.167 L 97.667 241.333 91.667 241.333 L 85.667 241.333 85.667 239.389 C 85.667 236.848,85.271 237.000,91.889 237.000 L 97.667 237.000 97.667 239.167 M112.000 238.500 L 112.000 240.000 106.464 240.000 C 101.553 240.000,100.952 239.940,101.131 239.473 C 101.242 239.183,101.333 238.508,101.333 237.973 L 101.333 237.000 106.667 237.000 L 112.000 237.000 112.000 238.500 M81.667 239.167 L 81.667 241.000 74.869 241.000 C 67.308 241.000,67.667 241.118,67.667 238.639 L 67.667 237.333 74.667 237.333 L 81.667 237.333 81.667 239.167 M296.842 237.681 C 296.961 237.873,296.921 238.210,296.754 238.431 C 296.587 238.652,296.258 239.503,296.023 240.322 C 295.412 242.456,293.915 240.378,294.470 238.167 C 294.691 237.286,296.384 236.940,296.842 237.681 M257.667 240.667 L 257.667 243.000 254.500 243.000 L 251.333 243.000 251.333 240.667 L 251.333 238.333 254.500 238.333 L 257.667 238.333 257.667 240.667 M64.000 240.167 L 64.000 241.667 59.512 241.667 C 54.614 241.667,54.860 241.762,54.009 239.522 L 53.683 238.667 58.842 238.667 L 64.000 238.667 64.000 240.167 M247.667 242.000 L 247.667 245.000 244.869 245.000 C 241.596 245.000,241.667 245.077,241.667 241.473 L 241.667 239.000 244.667 239.000 L 247.667 239.000 247.667 242.000 M177.333 243.458 C 177.333 244.810,177.427 246.385,177.542 246.958 L 177.750 248.000 173.542 248.000 L 169.333 248.000 169.331 246.750 C 169.330 246.063,169.233 244.487,169.116 243.250 L 168.904 241.000 173.118 241.000 L 177.333 241.000 177.333 243.458 M238.000 244.167 L 238.000 247.333 235.333 247.333 L 232.667 247.333 232.667 244.167 L 232.667 241.000 235.333 241.000 L 238.000 241.000 238.000 244.167 M165.667 243.667 L 165.667 246.000 163.333 246.000 L 161.000 246.000 160.995 244.417 C 160.993 243.546,160.900 242.496,160.790 242.083 C 160.594 241.354,160.658 241.333,163.128 241.333 L 165.667 241.333 165.667 243.667 M205.449 245.389 C 205.709 250.229,206.159 249.689,202.072 249.440 C 198.138 249.200,198.467 249.592,198.143 244.750 L 197.914 241.333 201.573 241.333 L 205.231 241.333 205.449 245.389 M228.333 244.667 L 228.333 248.000 224.000 248.000 L 219.667 248.000 219.667 244.667 L 219.667 241.333 224.000 241.333 L 228.333 241.333 228.333 244.667 M191.750 242.975 L 195.000 243.000 194.995 245.750 C 194.993 247.262,194.897 248.852,194.782 249.282 L 194.572 250.063 188.536 249.825 C 181.383 249.543,182.203 250.057,182.000 245.724 L 181.833 242.167 185.167 242.558 C 187.000 242.773,189.963 242.961,191.750 242.975 M301.865 242.384 C 302.128 242.810,301.060 243.741,300.513 243.562 C 300.323 243.499,300.119 243.122,300.060 242.724 C 299.942 241.919,301.407 241.643,301.865 242.384 M216.658 244.917 C 216.879 246.154,217.131 247.429,217.219 247.750 C 217.365 248.284,217.008 248.333,212.987 248.333 C 209.119 248.333,208.619 248.270,208.798 247.806 C 208.909 247.516,209.000 246.241,209.000 244.973 L 209.000 242.667 212.629 242.667 L 216.258 242.667 216.658 244.917 M282.020 244.020 C 282.825 244.825,282.780 246.258,281.933 246.788 C 281.236 247.224,281.055 247.056,280.506 245.457 C 279.797 243.397,280.618 242.618,282.020 244.020 M151.333 246.167 L 151.333 248.667 145.000 248.667 L 138.667 248.667 138.667 246.167 L 138.667 243.667 145.000 243.667 L 151.333 243.667 151.333 246.167 M134.000 246.609 L 134.000 249.218 129.417 249.086 C 123.570 248.918,124.000 249.135,124.000 246.344 L 124.000 244.000 129.000 244.000 L 134.000 244.000 134.000 246.609 M276.000 247.333 L 276.000 250.000 274.382 250.000 C 273.492 250.000,271.842 250.096,270.716 250.214 L 268.667 250.428 268.667 248.221 C 268.667 245.739,268.275 246.062,272.333 245.196 C 276.188 244.373,276.000 244.264,276.000 247.333 M104.333 247.833 L 104.333 250.667 98.628 250.667 L 92.923 250.667 93.142 248.750 C 93.262 247.696,93.441 246.421,93.540 245.917 L 93.720 245.000 99.026 245.000 L 104.333 245.000 104.333 247.833 M321.890 245.597 C 322.471 245.910,323.256 246.562,323.635 247.046 L 324.323 247.925 323.578 248.125 C 321.872 248.582,316.000 248.356,316.000 247.833 C 316.000 247.503,316.330 247.333,316.973 247.333 C 318.484 247.333,319.093 247.014,318.635 246.462 C 318.330 246.094,318.478 245.904,319.377 245.514 C 320.757 244.915,320.614 244.910,321.890 245.597 M70.450 245.549 L 73.000 245.764 73.000 249.087 L 73.000 252.410 71.250 252.212 C 70.287 252.102,68.022 251.913,66.216 251.792 L 62.933 251.570 63.147 249.369 C 63.590 244.818,63.341 244.948,70.450 245.549 M90.000 248.000 L 90.000 250.667 84.300 250.667 L 78.599 250.667 78.837 248.250 C 78.968 246.921,79.142 245.721,79.224 245.583 C 79.306 245.446,81.764 245.333,84.686 245.333 L 90.000 245.333 90.000 248.000 M118.667 247.333 L 118.667 249.333 113.833 249.333 L 109.000 249.333 109.000 247.333 L 109.000 245.333 113.833 245.333 L 118.667 245.333 118.667 247.333 M19.333 246.233 C 19.333 246.361,19.816 247.938,20.405 249.737 C 21.443 252.901,22.280 253.893,22.059 251.697 C 21.836 249.470,22.960 249.278,30.975 250.173 C 36.201 250.757,35.999 250.664,34.597 251.829 C 33.994 252.330,32.900 253.289,32.167 253.959 C 25.839 259.740,25.168 260.137,24.398 258.559 C 24.061 257.865,23.000 257.263,23.000 257.764 C 23.000 257.906,25.884 266.395,26.166 267.083 C 26.530 267.973,27.000 267.779,27.000 266.739 C 27.000 265.534,28.336 264.235,40.434 253.680 C 42.212 252.128,43.667 250.685,43.667 250.473 C 43.667 250.023,43.216 249.958,32.167 248.827 C 23.061 247.894,21.622 247.622,20.649 246.649 C 20.002 246.002,19.333 245.791,19.333 246.233 M357.667 246.118 C 357.667 246.183,356.842 248.598,355.833 251.485 C 354.825 254.372,354.000 256.944,354.000 257.200 C 354.000 258.073,354.656 257.670,355.147 256.495 C 355.837 254.845,356.240 254.803,359.851 256.006 L 363.058 257.074 366.612 261.234 C 370.568 265.863,371.712 267.528,371.585 268.469 C 371.344 270.265,372.367 269.012,373.336 266.327 C 374.401 263.373,374.376 261.079,373.304 263.431 C 372.446 265.314,371.814 264.928,367.684 260.000 L 365.030 256.833 369.265 256.104 C 375.434 255.042,375.667 255.057,375.667 256.528 C 375.667 258.734,376.404 257.548,378.022 252.737 C 379.609 248.018,379.672 246.853,378.251 248.496 C 377.576 249.275,376.838 249.483,371.000 250.546 L 364.500 251.729 361.755 250.845 C 357.971 249.627,357.549 249.073,358.512 246.583 C 358.670 246.176,358.576 246.000,358.202 246.000 C 357.908 246.000,357.667 246.053,357.667 246.118 M59.333 249.667 C 59.333 251.500,59.252 253.000,59.152 253.000 C 59.053 253.000,58.153 252.382,57.152 251.627 L 55.333 250.253 55.333 248.293 L 55.333 246.333 57.333 246.333 L 59.333 246.333 59.333 249.667 M263.123 248.083 C 263.234 248.496,263.326 249.671,263.329 250.696 L 263.333 252.558 260.083 253.133 C 258.296 253.449,256.529 253.782,256.156 253.872 C 255.557 254.017,255.397 253.726,254.771 251.350 L 254.064 248.663 254.782 248.495 C 256.097 248.187,261.154 247.402,262.044 247.367 C 262.688 247.342,262.976 247.533,263.123 248.083 M302.446 250.703 C 303.200 251.046,303.225 251.133,302.797 251.953 C 302.544 252.437,302.337 253.152,302.335 253.543 C 302.334 253.933,302.132 254.419,301.886 254.623 C 301.060 255.308,300.276 252.406,300.869 250.861 C 301.109 250.236,301.365 250.210,302.446 250.703 M249.667 253.318 L 249.667 255.970 248.583 256.134 C 247.987 256.224,246.508 256.373,245.296 256.465 L 243.092 256.633 242.603 253.650 L 242.114 250.667 245.890 250.667 L 249.667 250.667 249.667 253.318 M163.621 252.205 L 166.408 253.044 166.204 254.064 C 166.092 254.625,166.000 255.422,166.000 255.836 L 166.000 256.589 162.917 255.926 C 159.384 255.167,159.000 254.838,159.000 252.567 C 159.000 250.674,158.631 250.703,163.621 252.205 M293.662 252.325 C 293.964 252.890,293.890 253.015,293.138 253.204 C 292.198 253.439,291.595 252.908,291.900 252.114 C 292.157 251.443,293.261 251.576,293.662 252.325 M177.934 255.931 C 177.990 256.886,177.969 257.667,177.887 257.667 C 177.806 257.667,176.282 257.367,174.500 257.000 C 172.718 256.633,171.201 256.333,171.130 256.333 C 171.058 256.333,171.000 255.526,171.000 254.538 L 171.000 252.743 174.417 253.470 L 177.833 254.196 177.934 255.931 M153.333 254.833 L 153.333 256.667 149.667 256.667 C 147.650 256.667,146.000 256.599,146.000 256.516 C 146.000 256.434,146.162 255.609,146.361 254.683 L 146.722 253.000 150.028 253.000 L 153.333 253.000 153.333 254.833 M190.556 254.298 C 190.587 254.317,190.662 255.393,190.723 256.689 L 190.833 259.044 189.833 258.865 C 189.283 258.766,187.446 258.585,185.750 258.462 L 182.667 258.238 182.354 257.036 C 182.182 256.374,181.946 255.305,181.831 254.659 L 181.621 253.485 186.060 253.874 C 188.502 254.088,190.525 254.279,190.556 254.298 M235.169 255.354 C 235.464 257.893,235.947 257.634,229.829 258.214 C 223.731 258.792,224.335 259.040,224.095 255.866 L 223.904 253.333 229.419 253.333 L 234.935 253.333 235.169 255.354 M317.438 254.583 C 317.839 256.596,313.447 257.599,312.824 255.637 C 312.713 255.287,312.332 255.000,311.978 255.000 C 311.623 255.000,311.333 254.880,311.333 254.733 C 311.333 253.268,317.148 253.125,317.438 254.583 M114.000 255.833 L 114.000 257.667 108.667 257.667 L 103.333 257.667 103.333 255.833 L 103.333 254.000 108.667 254.000 L 114.000 254.000 114.000 255.833 M127.333 256.500 L 127.333 259.000 122.167 259.000 L 117.000 259.000 116.996 257.750 C 116.994 257.063,116.900 255.938,116.786 255.250 L 116.579 254.000 121.956 254.000 L 127.333 254.000 127.333 256.500 M221.000 256.333 L 221.000 258.667 215.667 258.667 L 210.333 258.667 210.333 256.516 L 210.333 254.365 212.417 254.247 C 213.563 254.182,215.963 254.100,217.750 254.064 L 221.000 254.000 221.000 256.333 M99.667 256.500 L 99.667 258.667 93.833 258.667 L 88.000 258.667 88.000 256.500 L 88.000 254.333 93.833 254.333 L 99.667 254.333 99.667 256.500 M141.333 256.000 L 141.333 257.667 136.667 257.667 L 132.000 257.667 132.000 256.000 L 132.000 254.333 136.667 254.333 L 141.333 254.333 141.333 256.000 M204.000 257.043 L 204.000 259.753 201.583 259.538 C 200.254 259.419,198.229 259.232,197.083 259.122 L 195.000 258.922 195.000 256.628 L 195.000 254.333 199.500 254.333 L 204.000 254.333 204.000 257.043 M277.667 255.512 C 277.667 256.161,276.528 256.136,275.979 255.475 C 275.618 255.040,275.623 254.900,276.003 254.665 C 276.584 254.306,277.667 254.857,277.667 255.512 M66.134 257.869 L 67.767 259.667 64.217 259.667 L 60.667 259.667 60.667 257.833 L 60.667 256.000 62.583 256.036 C 64.462 256.071,64.533 256.108,66.134 257.869 M84.667 257.500 L 84.667 259.000 78.333 259.000 L 72.000 259.000 72.000 257.500 L 72.000 256.000 78.333 256.000 L 84.667 256.000 84.667 257.500 M160.767 258.491 L 163.000 259.482 163.000 261.286 L 163.000 263.091 161.446 262.878 C 159.894 262.665,157.759 261.669,157.917 261.231 C 157.962 261.104,158.000 260.162,158.000 259.139 C 158.000 258.115,158.120 257.328,158.267 257.389 C 158.414 257.450,159.539 257.946,160.767 258.491 M270.113 257.917 C 270.730 260.193,270.708 260.361,269.652 261.347 C 265.816 264.931,257.236 262.709,260.579 258.997 C 261.887 257.546,269.770 256.652,270.113 257.917 M290.135 261.226 C 291.456 265.103,291.240 265.308,285.427 265.695 C 280.135 266.047,280.501 266.193,281.005 263.941 L 281.403 262.163 285.285 260.949 C 287.420 260.282,289.265 259.720,289.385 259.701 C 289.506 259.682,289.843 260.368,290.135 261.226 M254.466 260.691 C 257.590 262.534,255.017 265.267,250.107 265.322 C 248.286 265.342,247.224 263.539,247.981 261.713 C 248.629 260.148,252.510 259.537,254.466 260.691 M169.047 261.180 C 172.945 261.898,172.719 261.728,172.121 263.484 C 171.568 265.107,171.456 265.162,169.667 264.686 C 169.025 264.516,167.862 264.211,167.083 264.008 C 165.683 263.645,165.667 263.624,165.667 262.154 C 165.667 261.336,165.800 260.667,165.963 260.667 C 166.126 260.667,167.514 260.898,169.047 261.180 M242.348 261.341 C 245.315 262.929,242.488 265.936,237.342 266.665 C 234.055 267.132,233.221 266.799,232.520 264.742 C 231.402 261.460,230.884 261.688,240.939 261.049 C 241.363 261.022,241.997 261.153,242.348 261.341 M311.333 262.000 C 311.333 262.921,311.241 263.000,310.167 263.000 C 309.093 263.000,309.000 262.921,309.000 262.000 C 309.000 261.079,309.093 261.000,310.167 261.000 C 311.241 261.000,311.333 261.079,311.333 262.000 M181.750 261.862 C 185.782 262.107,185.551 261.868,184.928 265.153 C 184.544 267.177,184.479 267.280,183.678 267.138 C 183.214 267.056,181.354 266.774,179.547 266.513 C 175.646 265.950,176.118 266.326,175.823 263.547 L 175.581 261.260 176.874 261.452 C 177.585 261.557,179.779 261.742,181.750 261.862 M302.093 262.227 C 302.477 264.235,298.639 265.483,297.667 263.667 C 297.470 263.300,297.090 263.000,296.822 263.000 C 296.553 263.000,296.333 262.782,296.333 262.517 C 296.333 261.023,301.810 260.747,302.093 262.227 M153.004 262.417 C 153.006 262.829,153.100 263.729,153.214 264.417 L 153.421 265.667 148.752 265.667 C 142.107 265.667,142.000 265.635,142.000 263.637 L 142.000 262.023 145.417 261.915 C 147.296 261.856,149.771 261.776,150.917 261.737 C 152.875 261.671,153.000 261.712,153.004 262.417 M120.427 263.112 C 120.664 263.825,120.597 264.380,120.154 265.362 L 119.565 266.667 115.955 266.667 C 111.743 266.667,109.982 265.780,110.454 263.899 C 110.835 262.380,112.045 262.007,116.306 262.091 L 120.112 262.167 120.427 263.112 M137.421 263.741 C 137.668 265.363,137.792 265.333,130.814 265.333 C 124.556 265.333,124.333 265.310,124.333 264.667 C 124.333 263.728,125.498 262.674,126.583 262.629 C 127.087 262.608,129.450 262.493,131.833 262.373 C 136.764 262.126,137.191 262.230,137.421 263.741 M197.917 263.314 L 199.000 263.333 199.000 265.522 C 199.000 267.448,198.930 267.692,198.417 267.546 C 198.096 267.455,196.258 267.285,194.333 267.167 C 192.408 267.049,190.579 266.881,190.269 266.793 C 189.790 266.658,188.667 263.839,188.667 262.772 C 188.667 262.611,190.499 262.663,192.750 262.887 C 194.996 263.111,197.321 263.303,197.917 263.314 M228.227 264.624 C 228.818 266.374,228.784 266.413,225.833 267.329 C 219.737 269.221,216.728 268.516,217.110 265.284 C 217.393 262.894,217.193 262.973,222.726 263.075 L 227.735 263.167 228.227 264.624 M107.820 264.547 C 108.186 266.500,107.753 266.692,102.822 266.768 C 98.041 266.841,97.235 266.434,97.788 264.227 L 98.013 263.333 102.803 263.333 L 107.592 263.333 107.820 264.547 M211.934 263.823 C 211.997 263.886,212.163 264.777,212.302 265.802 L 212.555 267.667 207.944 267.667 L 203.333 267.667 203.333 265.451 L 203.333 263.236 207.576 263.472 C 209.909 263.601,211.870 263.759,211.934 263.823 M277.585 266.025 C 277.823 266.836,277.977 267.942,277.926 268.483 L 277.833 269.465 273.167 270.055 C 267.170 270.813,265.972 270.380,267.629 268.053 C 268.717 266.526,269.144 266.305,272.913 265.328 C 277.214 264.212,277.045 264.187,277.585 266.025 M78.667 266.333 L 78.667 268.000 73.667 268.000 L 68.667 268.000 68.667 266.333 L 68.667 264.667 73.667 264.667 L 78.667 264.667 78.667 266.333 M94.000 265.639 C 94.000 267.705,94.114 267.667,88.011 267.667 L 82.426 267.667 82.779 266.343 L 83.133 265.018 87.483 264.915 C 89.876 264.859,92.321 264.779,92.917 264.739 C 93.908 264.673,94.000 264.749,94.000 265.639 M161.426 267.164 C 162.813 267.805,164.719 268.495,165.663 268.697 C 166.960 268.975,167.333 269.186,167.190 269.560 C 167.085 269.832,167.000 270.325,167.000 270.655 C 167.000 271.442,163.228 270.792,160.471 269.530 C 158.720 268.728,158.667 268.664,158.667 267.352 C 158.667 266.608,158.721 266.000,158.786 266.000 C 158.852 266.000,160.040 266.524,161.426 267.164 M264.344 269.083 C 265.411 270.815,265.131 271.271,262.333 272.359 C 257.184 274.361,255.667 273.938,255.667 270.499 C 255.667 269.448,255.760 269.347,256.917 269.142 C 257.604 269.020,259.067 268.728,260.167 268.494 C 263.286 267.828,263.598 267.872,264.344 269.083 M176.917 269.687 C 179.165 270.118,179.184 270.143,178.626 272.004 L 178.252 273.252 176.656 272.830 C 173.843 272.089,171.235 270.738,171.464 270.141 C 171.575 269.850,171.667 269.332,171.667 268.991 C 171.667 268.407,171.763 268.397,173.250 268.829 C 174.121 269.081,175.771 269.468,176.917 269.687 M151.621 269.220 L 153.409 269.435 153.241 270.919 C 153.017 272.905,152.437 273.446,150.849 273.148 C 148.727 272.749,147.824 271.710,148.313 270.228 C 148.752 268.897,148.803 268.882,151.621 269.220 M141.386 269.859 C 144.253 270.036,144.690 270.149,145.386 270.890 L 146.167 271.723 145.408 272.339 C 144.439 273.125,142.107 273.400,137.500 273.270 L 133.833 273.167 133.729 271.712 C 133.566 269.442,133.681 269.335,136.069 269.508 C 137.223 269.592,139.615 269.750,141.386 269.859 M190.940 270.508 C 191.147 270.691,190.243 274.667,189.993 274.667 C 189.612 274.667,184.252 273.658,183.583 273.461 C 182.912 273.262,182.877 272.956,183.336 271.305 L 183.668 270.109 187.251 270.262 C 189.221 270.346,190.881 270.457,190.940 270.508 M251.345 271.083 C 253.033 273.819,252.601 274.475,248.651 275.170 C 242.221 276.301,239.667 275.413,239.667 272.044 C 239.667 269.967,239.576 270.000,245.374 270.000 L 250.676 270.000 251.345 271.083 M75.632 271.512 C 77.202 273.300,76.846 274.308,74.405 274.986 C 71.731 275.728,69.279 275.174,68.491 273.648 C 67.082 270.925,73.445 269.021,75.632 271.512 M111.500 270.851 C 113.969 271.235,114.000 271.259,114.000 272.815 C 114.000 275.903,109.511 276.308,106.998 273.447 C 105.426 271.656,106.693 270.059,109.333 270.504 C 109.792 270.581,110.767 270.737,111.500 270.851 M128.934 271.403 C 132.104 272.583,130.323 273.426,123.904 273.785 C 119.480 274.032,118.333 273.545,118.333 271.420 L 118.333 270.475 122.750 270.610 C 126.073 270.712,127.605 270.908,128.934 271.403 M203.562 270.867 C 205.411 270.995,206.254 271.182,206.177 271.445 C 206.114 271.659,205.886 272.733,205.671 273.833 L 205.278 275.833 201.389 275.613 C 199.250 275.492,197.102 275.380,196.615 275.363 C 195.671 275.331,195.645 275.100,196.186 271.484 L 196.338 270.469 198.586 270.574 C 199.822 270.631,202.061 270.763,203.562 270.867 M286.604 272.421 L 286.221 273.667 284.344 273.667 C 283.311 273.667,282.287 273.847,282.067 274.067 C 281.769 274.364,281.570 274.370,281.290 274.090 C 280.906 273.706,282.640 272.258,285.086 270.919 C 286.574 270.105,287.142 270.667,286.604 272.421 M102.642 271.878 C 104.445 274.170,103.101 275.167,98.204 275.167 C 89.457 275.167,88.831 271.664,97.500 271.227 C 98.600 271.171,100.052 271.098,100.726 271.063 C 101.696 271.013,102.096 271.183,102.642 271.878 M88.639 272.470 C 89.054 272.912,89.343 273.534,89.280 273.852 C 88.716 276.721,79.000 276.520,79.000 273.639 C 79.000 271.641,86.953 270.676,88.639 272.470 M235.631 272.530 C 236.465 273.591,236.032 275.031,234.545 276.141 C 233.072 277.242,224.234 277.192,223.330 276.077 C 222.689 275.287,222.762 274.560,223.681 272.583 L 224.107 271.667 229.529 271.667 L 234.952 271.667 235.631 272.530 M218.667 274.717 L 218.667 277.434 215.417 277.219 C 213.629 277.100,211.604 277.003,210.917 277.002 L 209.667 277.000 209.667 274.500 L 209.667 272.000 214.167 272.000 L 218.667 272.000 218.667 274.717 M158.880 273.448 C 161.538 275.277,161.666 276.982,159.146 276.995 C 157.340 277.004,155.991 275.075,156.470 273.167 C 156.741 272.089,156.940 272.113,158.880 273.448 M292.000 274.964 C 292.000 275.945,291.519 276.333,290.306 276.333 C 289.798 276.333,289.667 276.095,289.667 275.167 C 289.667 274.056,289.722 274.000,290.833 274.000 C 291.898 274.000,292.000 274.084,292.000 274.964 M169.668 275.203 C 172.503 275.721,172.604 275.771,172.799 276.744 C 173.473 280.116,172.685 280.911,169.158 280.417 C 165.002 279.833,163.922 278.225,165.881 275.537 C 166.624 274.517,166.148 274.559,169.668 275.203 M270.721 275.083 C 271.332 275.578,272.333 277.032,272.333 277.426 C 272.333 278.296,263.964 280.995,263.209 280.368 C 261.199 278.701,262.560 276.234,265.883 275.520 C 267.322 275.211,268.650 274.904,268.833 274.838 C 269.527 274.591,270.224 274.681,270.721 275.083 M150.328 278.250 C 150.319 279.937,149.039 280.639,145.932 280.659 C 142.532 280.681,141.863 277.920,145.186 277.580 C 149.399 277.149,150.334 277.270,150.328 278.250 M281.394 278.814 C 281.195 280.653,280.801 281.000,278.905 281.005 C 277.949 281.007,276.809 281.105,276.372 281.222 C 274.973 281.596,275.721 280.600,277.989 279.067 C 280.474 277.388,281.557 277.307,281.394 278.814 M108.772 279.511 C 109.878 281.831,109.431 282.533,106.645 282.857 C 103.107 283.270,99.307 282.038,99.062 280.400 C 98.789 278.567,99.340 278.333,103.950 278.333 L 108.210 278.333 108.772 279.511 M187.772 279.511 C 189.312 282.742,186.798 283.960,181.500 282.548 C 175.156 280.858,176.053 278.333,182.996 278.333 L 187.210 278.333 187.772 279.511 M257.617 278.699 C 259.652 279.409,258.610 281.462,255.693 282.491 C 251.846 283.848,248.138 283.399,247.259 281.470 C 246.554 279.923,247.688 279.298,252.059 278.826 C 254.135 278.602,255.998 278.400,256.200 278.376 C 256.402 278.353,257.040 278.498,257.617 278.699 M139.322 279.311 C 140.441 281.403,139.374 281.814,132.803 281.825 C 126.325 281.835,125.484 281.503,127.024 279.545 L 127.715 278.667 133.346 278.667 C 138.572 278.667,139.001 278.713,139.322 279.311 M123.824 280.182 C 124.963 281.673,124.526 281.827,118.874 281.925 C 113.279 282.023,112.667 281.884,112.667 280.515 C 112.667 279.313,112.942 279.258,118.247 279.397 C 122.806 279.516,123.377 279.596,123.824 280.182 M96.745 280.648 L 97.833 281.629 97.074 282.398 C 96.362 283.118,96.055 283.166,92.240 283.164 C 86.448 283.159,85.110 282.587,86.052 280.519 L 86.440 279.667 91.048 279.667 L 95.656 279.667 96.745 280.648 M81.417 280.544 C 83.623 281.177,81.100 283.653,78.239 283.663 C 76.444 283.670,73.008 281.404,73.002 280.210 C 73.000 279.925,80.265 280.214,81.417 280.544 M199.096 280.920 C 201.285 282.902,200.425 283.669,196.020 283.662 C 191.383 283.655,190.260 282.931,191.886 280.998 L 192.800 279.912 195.631 280.130 C 197.602 280.281,198.655 280.521,199.096 280.920 M243.148 281.356 C 245.493 283.953,244.369 284.655,237.855 284.662 C 233.541 284.666,233.155 284.615,232.438 283.942 C 230.191 281.831,233.200 280.493,241.211 280.040 C 241.652 280.015,242.388 280.515,243.148 281.356 M161.667 282.627 C 162.675 282.832,163.875 283.037,164.333 283.083 C 165.078 283.158,165.178 283.336,165.269 284.769 L 165.371 286.371 164.102 286.151 C 163.404 286.029,161.633 285.531,160.167 285.042 L 157.500 284.154 157.398 282.561 L 157.295 280.967 158.564 281.611 C 159.262 281.965,160.658 282.422,161.667 282.627 M212.248 281.871 C 214.838 282.132,216.071 284.262,214.083 285.043 C 212.001 285.862,202.845 284.852,202.425 283.758 C 201.654 281.748,204.879 281.128,212.248 281.871 M229.327 282.543 C 230.814 284.238,230.428 284.445,224.469 285.150 C 217.862 285.932,216.873 285.480,218.845 282.577 L 219.691 281.333 223.977 281.333 L 228.264 281.333 229.327 282.543 M172.651 286.336 C 173.912 286.562,175.741 286.626,177.068 286.493 L 179.333 286.266 179.333 288.133 C 179.333 290.341,179.807 290.254,173.918 289.126 L 169.336 288.248 168.983 286.937 C 168.789 286.215,168.545 285.404,168.441 285.133 C 168.297 284.757,168.517 284.796,169.376 285.297 C 169.994 285.657,171.468 286.125,172.651 286.336 M150.798 285.527 C 151.737 287.976,150.873 288.279,144.682 287.668 C 139.202 287.128,138.903 287.035,138.515 285.750 L 138.288 285.000 144.442 285.000 C 149.746 285.000,150.623 285.073,150.798 285.527 M264.871 285.724 C 266.034 286.294,267.239 287.897,266.816 288.311 C 266.642 288.481,264.776 288.779,262.669 288.974 C 259.764 289.243,258.621 289.488,257.942 289.990 L 257.047 290.652 256.682 289.545 C 256.026 287.559,256.844 285.877,258.578 285.645 C 259.353 285.542,260.103 285.338,260.244 285.194 C 260.602 284.826,263.783 285.191,264.871 285.724 M100.692 287.029 C 101.452 288.230,101.070 288.752,99.583 288.547 C 98.804 288.439,96.360 288.252,94.151 288.132 L 90.135 287.913 89.469 286.696 L 88.802 285.479 94.597 286.018 C 98.765 286.406,100.477 286.690,100.692 287.029 M120.667 287.083 C 120.668 287.887,112.777 288.072,110.785 287.315 C 108.901 286.599,110.130 286.333,115.333 286.333 C 120.642 286.333,120.667 286.337,120.667 287.083 M253.562 287.391 C 256.009 289.690,252.090 292.381,246.239 292.421 C 241.726 292.451,239.950 291.299,240.890 288.952 L 241.377 287.736 244.772 287.343 C 246.639 287.127,248.317 286.898,248.500 286.835 C 249.804 286.383,252.845 286.718,253.562 287.391 M83.514 287.356 C 83.803 287.824,79.205 289.316,78.781 288.892 C 78.748 288.859,78.617 288.420,78.491 287.916 L 78.261 287.000 80.778 287.000 C 82.200 287.000,83.389 287.155,83.514 287.356 M294.667 287.137 C 294.667 287.632,283.850 295.070,281.167 296.420 C 280.250 296.881,274.660 298.861,268.744 300.819 C 262.829 302.776,258.075 304.518,258.181 304.689 C 258.636 305.426,261.597 304.930,266.609 303.280 C 272.278 301.413,275.643 300.938,278.235 301.639 C 281.141 302.424,281.170 303.396,278.330 304.835 C 274.872 306.587,272.756 306.867,259.278 307.353 C 247.103 307.792,246.571 307.912,247.122 310.109 C 247.680 312.330,252.620 312.563,261.333 310.782 C 266.770 309.671,275.689 309.423,277.488 310.333 C 280.090 311.650,279.845 313.307,276.825 314.828 L 274.850 315.823 262.175 316.064 C 242.077 316.447,233.950 316.860,230.833 317.655 C 227.462 318.516,223.000 320.045,223.000 320.340 C 223.000 320.820,232.083 321.012,245.000 320.804 L 258.500 320.586 266.833 321.642 C 271.417 322.223,275.744 322.851,276.449 323.037 C 278.054 323.462,278.939 323.170,281.951 321.221 C 285.715 318.786,285.689 318.795,285.448 320.075 C 284.834 323.343,283.980 324.330,279.264 327.225 C 262.778 337.345,244.542 344.411,227.500 347.283 C 221.238 348.338,220.309 348.404,216.969 348.033 C 206.477 346.868,194.401 346.931,184.833 348.201 C 180.768 348.741,175.422 349.045,176.473 348.676 C 176.790 348.565,175.426 348.213,173.441 347.894 C 153.700 344.721,133.108 336.593,117.943 325.985 C 116.599 325.045,114.053 323.277,112.284 322.055 C 108.420 319.386,107.954 318.723,108.059 316.050 C 108.168 313.300,107.753 312.861,105.289 313.119 C 101.574 313.507,96.834 310.622,95.016 306.866 C 93.968 304.701,94.221 304.697,97.042 306.830 C 98.851 308.198,99.676 308.631,100.167 308.471 C 101.165 308.145,103.706 308.260,130.000 309.823 C 143.292 310.613,154.229 311.201,154.306 311.130 C 154.382 311.058,153.857 310.486,153.139 309.858 C 151.495 308.421,153.597 308.609,122.833 307.150 L 97.833 305.965 96.667 304.575 C 96.025 303.810,94.695 302.281,93.711 301.176 L 91.923 299.167 96.711 298.959 C 99.345 298.844,104.800 298.723,108.833 298.689 C 112.867 298.656,116.735 298.524,117.430 298.397 L 118.693 298.167 116.866 296.364 L 115.039 294.562 100.701 294.798 L 86.362 295.035 85.514 293.362 C 85.048 292.442,84.667 291.609,84.667 291.511 C 84.667 291.413,97.004 291.335,112.083 291.336 L 139.500 291.339 141.733 294.086 C 142.962 295.597,146.448 299.882,149.480 303.609 C 152.512 307.336,155.252 310.823,155.568 311.359 C 155.885 311.895,156.269 312.333,156.422 312.333 C 156.855 312.333,158.667 311.341,158.667 311.104 C 158.667 310.658,152.920 303.359,150.187 300.333 C 146.677 296.448,142.017 287.757,143.813 288.446 C 144.202 288.595,152.084 290.943,155.917 292.051 C 157.101 292.394,157.136 292.448,156.711 293.272 C 156.262 294.142,155.936 296.333,156.255 296.333 C 156.412 296.333,156.735 295.576,156.972 294.651 C 157.491 292.624,157.446 292.613,159.806 295.387 C 164.761 301.213,189.166 306.641,210.500 306.660 C 235.617 306.683,268.483 299.217,292.333 288.070 C 294.875 286.882,294.667 286.965,294.667 287.137 M190.833 289.920 C 192.117 289.856,193.429 289.681,193.750 289.532 C 194.271 289.291,194.333 289.478,194.333 291.289 L 194.333 293.317 193.417 293.141 C 192.912 293.044,190.925 292.706,189.000 292.390 L 185.500 291.814 185.401 290.111 L 185.301 288.408 186.901 289.223 C 188.246 289.909,188.871 290.019,190.833 289.920 M163.648 290.503 C 190.831 298.333,201.587 299.781,222.000 298.358 C 247.044 296.612,260.194 294.865,264.709 292.684 L 265.953 292.083 266.338 293.011 C 266.871 294.297,266.306 295.227,264.744 295.637 C 257.524 297.532,242.367 300.078,229.500 301.559 C 222.351 302.382,207.477 302.386,201.333 301.567 C 175.766 298.158,157.000 292.954,157.000 289.271 C 157.000 288.511,156.251 288.373,163.648 290.503 M202.103 289.804 C 203.055 289.817,204.396 289.700,205.083 289.543 L 206.333 289.259 206.333 290.769 C 206.333 293.295,206.334 293.294,203.401 292.791 C 199.095 292.053,199.333 292.190,199.333 290.453 C 199.333 289.101,199.395 288.970,199.853 289.350 C 200.139 289.587,201.151 289.792,202.103 289.804 M216.440 290.505 L 219.000 290.745 219.000 292.372 L 219.000 294.000 216.750 293.997 C 215.512 293.996,213.713 293.900,212.750 293.784 L 211.000 293.574 211.000 291.486 L 211.000 289.399 212.440 289.832 C 213.232 290.070,215.032 290.373,216.440 290.505 M236.141 290.089 C 239.200 291.831,237.380 292.623,229.378 293.034 C 222.441 293.390,222.039 293.208,222.877 290.083 C 223.187 288.927,234.109 288.932,236.141 290.089 M277.333 290.833 C 277.333 292.226,277.271 292.333,276.469 292.333 C 275.885 292.333,275.548 292.550,275.430 293.000 C 275.201 293.875,274.926 293.842,273.674 292.789 C 271.700 291.127,272.855 289.349,275.917 289.338 L 277.333 289.333 277.333 290.833 M163.333 299.323 C 163.333 299.957,170.300 307.552,171.346 308.059 C 176.382 310.496,182.959 310.319,185.489 307.678 L 186.424 306.702 185.629 306.535 C 185.191 306.443,183.783 306.203,182.500 306.003 C 176.920 305.129,169.922 302.820,165.888 300.521 C 164.483 299.720,163.333 299.181,163.333 299.323 M61.644 309.417 C 61.806 309.829,62.700 311.742,63.631 313.667 C 65.697 317.938,65.727 317.095,63.327 322.180 C 62.223 324.519,61.383 326.494,61.460 326.571 C 61.536 326.647,63.650 325.875,66.158 324.855 C 71.654 322.619,70.574 322.619,76.134 324.850 C 81.433 326.977,81.253 326.982,80.167 324.731 C 76.424 316.974,76.548 318.188,78.976 313.000 C 80.048 310.708,80.808 308.789,80.665 308.734 C 80.522 308.680,78.329 309.469,75.791 310.487 L 71.176 312.339 66.587 310.503 C 61.354 308.409,61.239 308.384,61.644 309.417 M319.224 311.917 C 320.068 313.704,320.985 315.767,321.260 316.500 L 321.762 317.833 319.728 322.153 C 318.610 324.529,317.746 326.524,317.809 326.586 C 317.871 326.649,319.997 325.868,322.533 324.850 C 325.068 323.833,327.304 323.000,327.500 323.000 C 327.696 323.000,329.932 323.833,332.467 324.850 C 335.003 325.868,337.138 326.640,337.212 326.566 C 337.286 326.492,336.443 324.519,335.340 322.180 C 332.930 317.075,332.935 318.207,335.305 313.090 C 336.389 310.749,337.213 308.769,337.135 308.691 C 337.057 308.613,334.855 309.416,332.241 310.475 L 327.489 312.402 322.931 310.534 C 320.425 309.507,318.219 308.667,318.031 308.667 C 317.843 308.667,318.379 310.129,319.224 311.917 M100.500 309.333 C 100.613 309.517,101.035 309.664,101.436 309.662 C 102.030 309.657,102.073 309.596,101.667 309.333 C 101.010 308.909,100.238 308.909,100.500 309.333 M141.650 314.780 C 140.816 315.009,139.616 315.515,138.984 315.904 C 137.972 316.526,136.668 316.934,132.833 317.831 C 131.864 318.057,131.890 318.082,133.668 318.638 C 134.677 318.953,135.894 319.467,136.373 319.781 C 137.788 320.708,142.794 321.254,143.491 320.556 C 143.797 320.251,144.637 319.906,145.357 319.791 C 147.064 319.518,147.009 319.050,145.129 317.862 L 143.592 316.891 145.315 316.249 C 148.808 314.946,145.653 313.681,141.650 314.780 M153.000 325.828 C 149.949 326.516,145.230 327.996,144.833 328.391 C 144.612 328.611,147.081 328.645,152.167 328.492 C 159.027 328.286,160.312 328.336,164.391 328.964 C 167.824 329.493,170.415 329.661,174.891 329.643 L 180.833 329.619 178.667 328.997 C 177.475 328.655,175.150 328.122,173.500 327.813 C 171.850 327.503,168.625 326.886,166.333 326.441 C 161.015 325.409,155.903 325.174,153.000 325.828 M209.333 325.552 C 201.365 325.828,190.314 326.380,189.167 326.560 L 187.833 326.769 188.833 327.048 C 192.649 328.112,197.775 328.443,210.833 328.467 C 225.240 328.493,226.108 328.407,228.333 326.722 L 229.499 325.840 228.500 325.626 C 227.543 325.421,214.560 325.371,209.333 325.552 M195.167 330.198 C 194.617 330.275,193.511 330.424,192.710 330.529 C 190.651 330.798,191.341 331.186,194.975 331.801 C 199.532 332.573,210.000 332.476,210.000 331.662 C 210.000 330.732,199.045 329.651,195.167 330.198 M150.524 331.041 C 148.888 331.220,147.331 331.488,147.066 331.636 C 146.365 332.029,155.525 332.748,159.500 332.613 L 162.833 332.500 160.500 331.726 C 157.736 330.809,154.603 330.594,150.524 331.041 M192.062 335.173 C 193.131 336.242,204.278 336.675,211.314 335.920 L 215.167 335.507 213.000 335.293 C 210.385 335.033,191.817 334.928,192.062 335.173 M147.833 336.548 C 150.055 338.304,154.312 339.007,156.796 338.028 C 158.249 337.455,157.768 337.294,152.593 336.627 C 146.868 335.890,147.003 335.892,147.833 336.548 M103.750 338.172 C 101.390 338.685,98.736 340.017,97.600 341.260 C 96.654 342.295,96.853 342.252,101.052 340.515 C 102.639 339.859,105.102 339.024,106.525 338.660 C 107.948 338.296,109.187 337.924,109.279 337.833 C 109.614 337.497,105.771 337.733,103.750 338.172 M288.388 337.833 C 288.479 337.924,289.718 338.296,291.142 338.660 C 292.565 339.024,295.028 339.859,296.615 340.515 C 300.835 342.261,301.015 342.297,300.007 341.197 C 298.907 339.995,295.634 338.475,293.189 338.028 C 291.168 337.659,288.089 337.534,288.388 337.833 M110.525 340.353 C 107.053 340.935,103.981 342.271,101.696 344.193 C 99.979 345.638,100.518 345.656,103.750 344.260 C 107.710 342.551,112.193 341.086,114.332 340.802 C 115.258 340.679,116.095 340.449,116.194 340.289 C 116.412 339.936,112.775 339.977,110.525 340.353 M281.440 340.236 C 281.556 340.424,282.379 340.675,283.268 340.793 C 285.386 341.074,290.065 342.605,293.917 344.278 C 295.612 345.014,297.000 345.489,297.000 345.333 C 297.000 344.350,292.396 341.650,289.290 340.810 C 286.984 340.187,281.145 339.760,281.440 340.236 M114.500 343.208 C 111.612 343.810,107.305 345.841,105.401 347.499 C 103.339 349.294,103.804 349.276,108.229 347.391 C 112.866 345.415,116.550 344.190,119.990 343.478 C 121.360 343.195,122.548 342.897,122.629 342.815 C 122.986 342.459,116.617 342.766,114.500 343.208 M275.833 343.010 C 276.383 343.161,278.183 343.616,279.833 344.022 C 282.895 344.774,289.141 347.045,291.605 348.302 C 293.710 349.376,293.986 349.112,292.333 347.606 C 290.368 345.815,286.145 343.828,282.931 343.183 C 280.232 342.641,273.933 342.487,275.833 343.010 M123.195 345.369 C 118.127 346.108,114.100 347.722,110.419 350.489 C 106.870 353.157,107.106 353.524,111.166 351.648 C 117.361 348.786,127.011 345.667,129.670 345.667 C 130.196 345.667,130.720 345.517,130.833 345.333 C 131.084 344.927,126.064 344.950,123.195 345.369 M266.802 345.282 C 266.932 345.494,267.470 345.667,267.997 345.667 C 270.761 345.667,282.470 349.550,287.783 352.230 C 289.868 353.281,290.024 353.064,288.340 351.458 C 285.562 348.810,281.448 346.780,276.860 345.793 C 273.724 345.118,266.473 344.750,266.802 345.282 M130.202 348.033 C 123.799 348.708,117.195 351.380,113.500 354.791 C 111.252 356.865,111.460 357.116,114.260 355.707 C 119.641 352.997,128.167 350.026,133.798 348.898 C 139.290 347.797,137.201 347.295,130.202 348.033 M260.509 347.971 C 260.017 348.163,260.303 348.288,261.637 348.465 C 266.512 349.111,275.392 352.014,282.290 355.215 C 286.832 357.324,287.008 356.930,282.931 353.784 C 277.618 349.685,264.696 346.334,260.509 347.971 M140.833 350.232 C 131.980 350.700,122.998 353.605,117.469 357.788 C 114.189 360.270,114.484 360.437,118.971 358.638 C 127.950 355.038,137.496 352.241,144.687 351.103 C 149.748 350.303,147.804 349.863,140.833 350.232 M250.667 350.294 C 249.272 350.486,249.424 350.541,252.833 351.081 C 260.389 352.277,269.769 355.018,278.602 358.611 C 283.198 360.480,283.518 360.302,280.146 357.749 C 273.415 352.654,259.359 349.099,250.667 350.294 M210.333 350.999 C 233.306 352.685,262.658 359.350,304.495 372.381 C 321.722 377.747,333.812 379.785,348.583 379.815 L 357.999 379.833 358.000 397.390 L 358.000 414.947 355.750 415.203 C 352.175 415.609,333.609 415.500,328.667 415.044 C 315.147 413.797,309.090 412.381,287.167 405.344 C 256.412 395.472,243.221 391.755,228.667 388.859 C 195.404 382.242,177.024 384.791,127.167 402.935 C 108.170 409.848,106.523 410.348,92.000 413.620 C 69.373 418.718,54.325 419.389,43.250 415.794 L 41.667 415.280 41.667 397.770 L 41.667 380.261 42.574 380.489 C 47.558 381.740,62.155 382.095,70.781 381.175 C 82.465 379.929,89.794 378.115,108.500 371.843 C 160.155 354.522,186.069 349.217,210.333 350.999 M15.500 360.835 C 25.324 364.489,38.996 366.714,55.000 367.265 L 61.833 367.500 59.000 369.380 C 52.870 373.446,43.613 376.728,39.750 376.205 L 38.333 376.013 38.333 390.006 L 38.333 404.000 36.404 404.000 C 28.987 404.000,12.584 400.106,6.439 396.886 L 5.573 396.432 8.370 393.309 C 9.908 391.591,13.529 387.763,16.417 384.803 C 22.543 378.521,22.106 379.413,19.826 377.843 C 16.307 375.419,11.006 367.480,8.248 360.500 C 7.958 359.767,7.492 358.630,7.213 357.974 L 6.706 356.782 9.436 358.189 C 10.938 358.962,13.667 360.153,15.500 360.835 M392.451 358.722 C 388.759 367.810,383.687 375.546,379.686 378.194 C 377.967 379.331,377.538 378.604,383.583 384.803 C 390.621 392.019,394.460 396.343,394.116 396.670 C 393.684 397.080,385.938 399.812,382.000 400.942 C 375.824 402.715,368.136 403.991,363.583 403.997 L 361.667 404.000 361.667 390.048 L 361.667 376.095 359.083 375.906 C 353.487 375.496,346.383 372.953,341.159 369.490 L 338.167 367.507 344.833 367.275 C 365.221 366.568,384.265 362.568,392.167 357.334 C 392.717 356.969,393.194 356.670,393.227 356.669 C 393.260 356.668,392.911 357.592,392.451 358.722 M242.857 358.857 C 241.342 360.372,243.005 363.252,245.145 362.820 C 246.316 362.583,247.333 361.558,247.333 360.615 C 247.333 358.850,244.124 357.590,242.857 358.857 M190.150 359.448 C 185.209 361.700,185.767 370.762,190.789 369.820 C 195.927 368.856,195.250 362.223,190.064 362.718 C 188.467 362.870,188.367 362.723,189.417 361.766 C 192.762 358.720,198.000 360.782,198.000 365.145 C 198.000 368.419,195.522 370.324,190.586 370.845 C 188.404 371.076,187.667 371.765,187.667 373.574 L 187.667 374.667 198.083 374.670 C 203.813 374.671,209.287 374.767,210.250 374.883 C 211.947 375.087,212.000 375.068,212.000 374.266 L 212.000 373.439 205.947 373.219 C 202.617 373.099,197.655 373.000,194.919 373.000 C 189.248 373.000,188.318 372.464,192.862 371.815 C 198.538 371.004,200.345 369.450,200.326 365.395 C 200.304 360.651,194.699 357.375,190.150 359.448 M215.834 365.909 C 214.244 374.987,214.598 376.230,218.692 375.934 C 220.163 375.827,220.558 375.895,220.429 376.231 C 220.337 376.471,220.391 376.669,220.548 376.671 C 220.705 376.673,223.346 377.100,226.417 377.619 C 229.487 378.138,232.000 378.460,232.000 378.335 C 232.000 378.210,232.516 375.196,233.147 371.637 C 234.700 362.879,234.663 363.617,233.563 363.246 C 232.299 362.821,232.435 362.443,231.201 369.799 C 229.895 377.585,230.454 376.855,226.346 376.136 C 223.011 375.553,222.976 375.536,223.152 374.690 C 223.430 373.355,225.000 362.767,225.000 362.225 C 225.000 361.853,223.101 361.195,222.779 361.456 C 222.750 361.480,222.331 363.750,221.849 366.500 C 220.540 373.969,219.852 375.314,217.813 374.385 C 216.392 373.737,216.297 372.800,217.159 367.944 C 218.368 361.132,218.426 360.667,218.057 360.667 C 217.872 360.667,217.517 360.588,217.267 360.492 C 216.917 360.358,216.589 361.596,215.834 365.909 M168.417 363.569 C 167.471 363.751,167.373 363.089,169.477 370.667 C 170.469 374.242,171.181 377.255,171.057 377.362 C 170.741 377.639,162.666 379.777,162.513 379.624 C 162.444 379.555,161.551 376.512,160.529 372.862 C 158.382 365.196,158.762 365.993,157.477 366.461 L 156.453 366.833 158.429 374.167 C 159.516 378.200,160.434 381.533,160.470 381.573 C 160.525 381.635,165.512 380.286,171.917 378.476 C 173.016 378.165,173.667 377.798,173.667 377.489 C 173.667 376.321,169.861 363.338,169.531 363.379 C 169.330 363.404,168.829 363.489,168.417 363.569 M190.984 364.253 C 192.070 365.133,192.286 367.381,191.372 368.295 C 190.454 369.213,189.821 369.185,188.818 368.182 C 186.724 366.088,188.738 362.435,190.984 364.253 M238.838 365.083 C 238.394 366.391,235.333 378.678,235.333 379.150 C 235.333 379.497,235.546 379.674,235.884 379.608 C 236.301 379.526,236.853 377.879,238.155 372.833 C 239.100 369.167,239.982 366.185,240.113 366.206 C 242.211 366.556,244.333 367.160,244.333 367.408 C 244.333 367.583,243.572 370.651,242.642 374.227 C 241.712 377.804,241.017 380.795,241.097 380.875 C 241.177 380.955,241.680 381.146,242.213 381.299 L 243.184 381.577 244.963 374.656 L 246.742 367.735 247.786 368.034 C 249.235 368.450,249.667 368.410,249.667 367.859 C 249.667 367.308,248.940 367.054,243.436 365.681 C 238.739 364.509,239.020 364.545,238.838 365.083 M145.293 365.634 C 134.200 369.973,140.333 387.553,151.817 384.338 C 158.042 382.595,157.741 374.712,151.477 375.418 C 147.910 375.820,146.972 381.106,150.127 383.030 L 151.167 383.664 150.231 383.665 C 143.419 383.674,138.872 372.847,143.706 368.129 L 145.034 366.833 144.813 368.216 C 144.060 372.935,149.341 375.218,152.310 371.457 C 155.279 367.696,150.391 363.640,145.293 365.634 M149.264 366.856 C 152.055 368.810,150.533 373.473,147.658 371.775 C 145.791 370.672,145.632 367.394,147.412 366.679 C 148.438 366.267,148.421 366.265,149.264 366.856 M126.330 368.920 C 124.055 370.055,124.775 373.000,127.327 373.000 C 129.500 373.000,130.717 370.903,129.417 369.399 C 128.560 368.409,127.640 368.266,126.330 368.920 M253.392 370.185 C 250.316 371.744,247.948 376.601,248.493 380.234 C 249.300 385.619,257.056 384.996,257.056 379.546 C 257.056 376.431,253.597 374.277,250.907 375.716 L 250.192 376.099 250.807 375.133 C 253.374 371.099,255.849 370.059,259.026 371.680 C 263.216 373.817,261.707 382.168,256.833 383.820 C 254.565 384.588,255.162 385.029,260.833 386.767 C 263.767 387.666,266.231 388.463,266.309 388.538 C 266.387 388.612,266.059 389.981,265.580 391.580 C 265.100 393.178,264.736 394.509,264.771 394.537 C 265.958 395.513,266.962 394.948,267.618 392.936 C 269.225 387.997,273.338 374.564,273.256 374.518 C 271.021 373.274,271.432 372.708,269.060 380.286 C 267.948 383.835,266.978 386.800,266.902 386.876 C 266.827 386.951,265.159 386.510,263.197 385.896 L 259.629 384.779 260.823 383.973 C 262.825 382.622,264.636 377.936,264.163 375.333 C 263.344 370.833,257.564 368.070,253.392 370.185 M134.382 374.023 C 133.950 374.196,133.663 374.524,133.744 374.752 C 135.598 379.965,138.051 387.393,137.952 387.492 C 137.003 388.441,129.335 390.526,129.144 389.887 C 129.025 389.491,128.020 386.490,126.911 383.219 L 124.895 377.271 123.889 377.472 C 123.335 377.583,122.824 377.732,122.753 377.802 C 122.584 377.971,127.303 391.750,127.654 392.112 C 127.898 392.364,139.816 388.533,140.425 388.006 C 140.770 387.708,135.946 373.661,135.508 373.688 C 135.320 373.699,134.813 373.850,134.382 374.023 M153.137 377.692 C 155.429 380.416,153.108 383.826,150.641 381.359 C 149.199 379.917,149.287 377.942,150.833 377.065 C 151.854 376.486,152.202 376.581,153.137 377.692 M254.086 377.710 C 254.565 378.355,254.678 378.858,254.512 379.611 C 253.666 383.465,249.582 383.127,250.103 379.246 C 250.439 376.738,252.712 375.862,254.086 377.710 M113.451 380.897 C 109.876 381.596,109.270 384.798,111.479 391.317 C 112.315 393.784,112.886 395.903,112.749 396.026 C 112.420 396.323,108.984 397.435,108.862 397.284 C 108.810 397.219,107.769 394.253,106.547 390.691 C 103.926 383.047,104.464 383.700,101.748 384.856 C 101.587 384.925,106.413 398.835,106.709 399.153 C 106.896 399.355,108.240 399.069,110.339 398.381 L 113.671 397.288 114.547 397.978 C 115.029 398.357,115.690 398.667,116.016 398.667 C 116.942 398.667,116.099 400.532,114.667 401.651 C 112.634 403.240,109.614 403.880,109.204 402.809 C 108.974 402.210,109.466 401.122,110.056 400.926 C 110.566 400.756,110.163 399.667,109.590 399.667 C 107.299 399.667,106.599 404.302,108.807 404.856 C 110.847 405.369,117.862 402.286,118.178 400.738 C 118.495 399.181,119.160 398.171,119.942 398.058 C 120.546 397.971,120.652 397.806,120.473 397.225 C 120.150 396.172,120.144 396.170,118.299 396.643 C 115.572 397.342,115.708 396.593,118.496 395.556 C 121.940 394.275,122.500 393.451,122.500 389.660 C 122.500 383.205,118.997 379.813,113.451 380.897 M291.016 383.083 C 290.623 384.412,290.238 385.688,290.161 385.917 C 290.084 386.146,289.552 386.333,288.979 386.333 C 284.406 386.333,283.572 393.796,287.926 395.753 C 292.017 397.592,294.310 396.611,295.674 392.438 C 296.563 389.715,296.715 389.523,297.770 389.788 C 300.935 390.582,301.513 394.348,298.896 397.124 C 296.953 399.183,295.704 399.265,290.216 397.692 C 284.088 395.936,281.705 396.482,282.059 399.559 C 282.243 401.156,284.869 401.060,285.061 399.449 C 285.250 397.872,285.906 397.806,290.035 398.949 C 298.449 401.279,302.667 399.500,302.667 393.622 C 302.667 391.139,301.740 389.972,298.963 388.960 C 297.865 388.560,297.029 388.067,297.105 387.866 C 297.181 387.665,297.489 386.649,297.790 385.609 L 298.337 383.718 300.393 384.523 C 302.671 385.416,302.559 385.416,302.718 384.522 C 302.808 384.021,302.535 383.786,301.500 383.468 C 300.767 383.242,298.442 382.520,296.333 381.863 C 291.470 380.348,291.852 380.260,291.016 383.083 M118.333 383.275 C 119.580 384.188,121.024 387.095,121.232 389.112 C 121.531 392.013,120.299 393.632,116.935 394.757 L 115.371 395.280 113.852 390.723 C 113.017 388.217,112.333 385.627,112.333 384.968 C 112.333 382.311,115.713 381.357,118.333 383.275 M294.404 382.852 L 295.927 383.371 295.317 385.388 C 294.981 386.497,294.637 387.474,294.552 387.559 C 294.431 387.680,291.787 387.062,291.412 386.824 C 291.303 386.755,292.657 382.333,292.787 382.333 C 292.839 382.333,293.567 382.567,294.404 382.852 M345.003 386.298 C 342.624 386.960,343.310 390.667,345.811 390.667 C 348.491 390.667,349.417 387.600,347.105 386.383 C 346.308 385.963,346.217 385.960,345.003 386.298 M314.820 387.787 C 314.658 388.261,311.333 402.032,311.333 402.232 C 311.333 402.312,311.737 402.330,312.231 402.272 C 313.107 402.169,313.169 402.006,314.752 395.674 C 315.644 392.103,316.409 389.146,316.452 389.104 C 316.541 389.014,320.449 390.012,320.606 390.164 C 320.664 390.220,319.944 393.225,319.007 396.840 C 317.143 404.026,317.157 403.708,318.706 403.782 L 319.794 403.833 320.647 400.366 C 321.629 396.374,321.976 395.980,323.875 396.703 C 328.225 398.359,327.258 405.825,322.427 407.878 C 318.881 409.385,310.169 406.865,307.538 403.571 C 305.093 400.509,306.682 393.220,310.026 392.159 C 310.712 391.941,310.831 391.443,310.371 390.716 C 309.630 389.547,306.192 392.737,305.454 395.276 C 303.182 403.091,306.787 407.976,315.961 409.510 C 324.837 410.994,328.682 408.578,328.933 401.358 C 329.080 397.119,327.425 395.148,323.528 394.921 C 322.363 394.854,322.045 394.718,322.157 394.333 C 322.236 394.058,322.398 393.383,322.515 392.833 C 323.000 390.562,322.891 390.658,324.391 391.187 C 326.097 391.789,326.000 391.806,326.000 390.909 C 326.000 390.032,315.095 386.988,314.820 387.787 M292.412 388.215 C 293.812 388.608,294.317 388.896,294.189 389.228 C 294.092 389.483,293.766 390.535,293.466 391.567 C 291.973 396.704,286.059 395.875,286.763 390.628 C 287.137 387.837,288.694 387.172,292.412 388.215 M90.496 388.463 C 89.577 388.686,88.377 389.107,87.829 389.398 C 87.281 389.688,85.738 390.094,84.400 390.298 C 77.555 391.345,74.832 395.673,76.788 402.397 C 78.220 407.317,84.025 408.386,85.135 403.935 C 86.213 399.613,81.198 396.265,78.444 399.467 L 77.667 400.371 77.674 398.602 C 77.688 395.246,79.386 392.998,82.762 391.868 C 85.268 391.028,85.320 391.067,84.585 393.244 C 83.120 397.583,85.755 403.762,89.270 404.234 C 95.958 405.131,97.116 393.639,90.626 390.775 L 89.266 390.175 90.216 389.769 C 96.246 387.193,102.293 396.908,97.169 400.938 C 95.698 402.095,96.277 402.879,97.965 402.018 C 102.037 399.941,102.427 393.270,98.676 389.881 C 96.640 388.042,94.065 387.595,90.496 388.463 M88.967 392.150 C 93.555 394.522,94.354 403.111,89.987 403.111 C 86.703 403.111,84.368 395.058,86.855 392.309 C 87.552 391.539,87.756 391.524,88.967 392.150 M334.241 400.912 C 334.134 405.080,334.083 408.527,334.128 408.573 C 334.174 408.618,337.600 408.695,341.742 408.744 C 351.735 408.862,352.500 408.347,352.500 401.500 C 352.500 395.994,350.329 393.418,345.955 393.734 C 342.410 393.991,341.789 395.197,341.465 402.452 L 341.233 407.667 338.787 407.667 L 336.342 407.667 336.557 400.500 L 336.773 393.333 335.605 393.333 L 334.436 393.333 334.241 400.912 M53.007 394.584 C 48.019 397.089,49.050 405.815,54.219 404.846 C 59.185 403.914,57.921 397.098,52.907 397.770 C 51.654 397.938,51.635 397.925,52.100 397.221 C 53.964 394.400,58.772 394.656,60.379 397.661 C 62.390 401.422,59.716 405.138,54.500 405.834 C 53.583 405.956,52.594 406.121,52.301 406.201 C 51.651 406.378,51.000 407.725,51.000 408.893 L 51.000 409.756 56.750 409.547 C 59.913 409.432,65.387 409.241,68.917 409.123 L 75.333 408.908 75.333 408.081 L 75.333 407.253 71.250 407.454 C 59.554 408.031,53.247 408.091,53.402 407.626 C 53.497 407.339,54.528 407.017,56.145 406.769 C 62.173 405.843,64.394 402.997,63.000 397.981 C 62.092 394.711,56.522 392.817,53.007 394.584 M348.528 395.351 C 350.377 396.493,351.455 399.149,351.264 402.092 C 350.987 406.364,349.713 407.667,345.814 407.667 L 343.595 407.667 343.727 402.583 C 343.917 395.279,345.225 393.309,348.528 395.351 M54.182 399.485 C 55.781 401.084,55.187 404.000,53.262 404.000 C 51.050 404.000,50.202 400.179,52.167 399.065 C 53.106 398.532,53.262 398.565,54.182 399.485 M81.950 400.780 C 83.643 402.583,83.350 405.312,81.432 405.600 C 80.482 405.743,78.667 403.591,78.667 402.322 C 78.667 400.298,80.631 399.376,81.950 400.780 " stroke="none" fill="#000000" fill-rule="evenodd"></path></g></svg>